<?xml version="1.0" encoding="utf-8"?>
<!-- Generator: Adobe Illustrator 23.1.0, SVG Export Plug-In . SVG Version: 6.00 Build 0)  -->
<svg version="1.1" id="Слой_1" xmlns="http://www.w3.org/2000/svg" xmlns:xlink="http://www.w3.org/1999/xlink" x="0px" y="0px"
	 viewBox="0 0 657 384" style="enable-background:new 0 0 657 384;" xml:space="preserve">
<style type="text/css">
	.st0{stroke:#faffe8;stroke-miterlimit:10;}
</style>
<path class="st0" d="M148,303.2c0,59.7-19,80.4-73.7,80.4c-54.7,0-73.7-20.6-73.7-80.4V7.1h26.3v266.4c0,24.8,13.7,34.9,47.4,34.9
	c33.7,0,47.4-10,47.4-34.9V7.1H148V303.2z M243.9,377.4h-73.7v-75.3h73.7c39,0,47.4-10.1,47.4-35V6.4h26.3v290.4
	C317.6,356.2,304.4,377.4,243.9,377.4z M413,377.4h-73.7v-75.3H413c39,0,47.4-10.1,47.4-35V6.4h26.3v290.4
	C486.7,356.2,473.5,377.4,413,377.4z M582.8,382.7c-60.5,0-73.7-21.1-73.7-80.3V80.7c0-59.1,13.2-80.3,73.7-80.3
	c60.5,0,73.7,21.1,73.7,80.3v221.8C656.5,361.6,643.4,382.7,582.8,382.7z M582.7,75.3c-39,0-47.4,10.1-47.4,35v163.2
	c0,24.9,8.4,35,47.4,35c38.9,0,47.4-10.1,47.4-35V110.3C630.1,85.3,621.7,75.3,582.7,75.3L582.7,75.3z"/>
</svg>
