<?xml version="1.0" encoding="utf-8"?>
<!-- Generator: Adobe Illustrator 23.1.0, SVG Export Plug-In . SVG Version: 6.00 Build 0)  -->
<svg version="1.1" id="Слой_1" xmlns="http://www.w3.org/2000/svg" xmlns:xlink="http://www.w3.org/1999/xlink" x="0px" y="0px"
	 viewBox="0 0 696 698" style="enable-background:new 0 0 696 698;" xml:space="preserve">
<style type="text/css">
	.st0{clip-path:url(#SVGID_2_);}
	.st1{fill:#1E1E1E;stroke:#faffe8;stroke-width:1.0243;}
	.st2{fill:#faffe8;}
	.st3{fill:#8B83F6;}
</style>
<g>
	<defs>
		<rect id="SVGID_1_" width="696" height="698"/>
	</defs>
	<clipPath id="SVGID_2_">
		<use xlink:href="#SVGID_1_"  style="overflow:visible;"/>
	</clipPath>
	<g class="st0">
		<path class="st1" d="M246.6,595.3l-143.2,0l0-144.4v-0.2l-0.1-0.1L1.2,349l102.1-101.5l0.1-0.1v-0.2l0-144.5l143.2,0h0.2l0.1-0.1
			L348,0.7l101,101.8l0.1,0.1h0.2l142.8,0l0.1,144.5l0,0.2l0.1,0.1L694.8,349L592.5,450.5l-0.1,0.1v0.2l0,144.4H449.2l-0.1,0.1
			L348,697.3L247,595.4l-0.1-0.1H246.6z"/>
		<path class="st2" d="M113.3,667.1c-1.1,0-2.2,0-3.4,0c-0.9,0-1.7-0.1-2.6-0.3c-0.2-0.1-0.5-0.2-0.7-0.3c-0.4-0.1-0.6-0.4-0.9-0.7
			c-1.3-1.6-2.7-3.2-4.3-4.5c-0.9-0.7-1.9-1.4-2.9-1.9c-0.7-0.4-1.3-0.7-2-1.1c-0.7-0.4-1.4-0.9-2.2-1.4c-0.2-0.1-0.3-0.3-0.6-0.3
			c-0.1,0-0.1-0.1-0.2-0.1c-0.5-0.4-0.9-0.9-1.4-1.3c-1.2-1.7-1.3-3.1-0.4-5c0.1-0.2,0.3-0.5,0.5-0.7c0.5-0.7,0.9-1.4,1.2-2.2
			c0.1-0.2,0.2-0.4,0.3-0.5c0.5-0.9,1-1.8,1.5-2.8c0.1-0.2,0.2-0.5,0.3-0.8c1.1-2.8,0.6-5.4-1.3-7.7c-0.2-0.2-0.4-0.4-0.5-0.6
			c-0.2-0.4-0.6-0.5-1-0.6c-0.6-0.2-1.3-0.3-1.9-0.3c-0.3,0-0.5,0-0.8,0c-1.4,0-2.7,0-4.1,0c-0.4,0-0.7,0-1.1-0.1
			c-0.6-0.1-1.3-0.1-1.9-0.2c-0.2,0-0.5,0-0.7-0.1c-0.4-0.2-0.6,0-0.8,0.2c-0.2,0.2-0.3,0.4-0.4,0.5c-0.5,0.6-1.2,1.1-1.9,1.4
			c-1,0.5-2.1,0.8-3.2,1c-0.8,0.1-1.5,0-2.2-0.5c-0.3-0.2-0.7-0.4-1-0.4c-0.1,0-0.2,0-0.3-0.1c-0.4-0.1-0.6-0.3-0.7-0.7
			c0-0.1,0-0.2-0.1-0.3c-0.1-0.2-0.2-0.3-0.4-0.3c-0.3,0-0.6,0-1,0c-0.2,0-0.4,0.1-0.7,0.1c-0.4,0-0.6-0.3-0.5-0.7
			c0-0.1,0.1-0.2,0.1-0.3c0-0.2,0-0.3-0.2-0.3c-0.2-0.1-0.3-0.1-0.5-0.2c-0.2-0.1-0.3-0.4-0.1-0.6c0.1-0.1,0.2-0.1,0.3-0.2
			c0.7-0.5,1.4-1,2.1-1.6c0.4-0.3,0.9-0.7,1.4-0.9c0.1-0.1,0.1-0.1,0-0.2c-0.7-0.5-1.3-1.1-1.9-1.7c-0.5-0.5-0.9-1.1-1.3-1.7
			c-0.9-1.6-1.6-3.4-1.8-5.3c-0.2-1.8-0.1-3.5,0.4-5.2c0.5-1.6,1-3.2,1.5-4.7c0.4-1.4,1.1-2.6,1.9-3.8c0.4-0.6,0.7-1.2,1-1.8
			c1.5-2.8,3.2-5.4,5.3-7.8c3.4-3.9,7.4-7.2,11.7-10c5.1-3.2,10.6-5.7,16.3-7.5c3.6-1.2,7.3-2.2,11.1-2.9c0.8-0.2,1.6-0.3,2.4-0.4
			c0.1,0,0.3-0.1,0.4-0.1c0.7-0.2,1.5-0.4,2.2-0.6c1-0.3,2-0.8,2.9-1.3c1-0.6,2.1-1.2,3.2-1.7c1.4-0.7,2.9-1,4.4-1
			c0.7,0,1.4,0,2.1,0c0.5,0,1-0.1,1.4-0.4c0.7-0.5,1.5-1,2.3-1.4c0.6-0.3,1.2-0.7,1.7-1.1c0.3-0.2,0.4-0.4,0.3-0.8
			c-0.2-1.2-0.1-2.3-0.1-3.5c0-0.7,0.2-1.3,0.6-1.9c0.2-0.3,0.4-0.6,0.6-0.9c0.1-0.2,0.1-0.3-0.1-0.4c-0.2-0.2-0.4-0.3-0.6-0.4
			c-0.6-0.3-1.2-0.6-1.9-0.7c-0.2,0-0.4-0.1-0.6-0.1c-0.7-0.2-1.3-0.5-1.7-1.1c-0.4-0.5-0.7-1-1.1-1.6c-0.6-1-1.2-1.9-1.8-2.9
			c-1.1-1.8-2.5-3.4-4.2-4.6c-1.3-0.9-2.4-2.1-3.2-3.5c-0.4-0.7-0.8-1.4-1.3-2c-0.1-0.1-0.1-0.2-0.1-0.3c0-0.4,0.3-1,0.7-1.1
			c0.5-0.2,0.9-0.3,1.5-0.3c0.4,0,0.8,0,1.1,0c1.1-0.1,2.1,0.2,3,0.7c0.9,0.5,1.9,1,2.7,1.7c0.4,0.3,0.7,0.6,1.1,0.9
			c0.7,0.6,1.4,1.3,1.9,2.1c0.6,0.8,1.2,1.7,1.8,2.5c0.9,1.1,1.8,2.2,2.7,3.3c0.9,1.1,2,1.8,3.2,2.5c0.2,0.1,0.4,0.2,0.5,0.2
			c0.4,0.1,0.8,0.2,1.2-0.1c0.4-0.2,0.7-0.4,1.1-0.5c1-0.5,2-1.1,3.1-1.5c1-0.4,2-0.6,3-0.5c0.2,0,0.4,0,0.6,0.1
			c1.4,0.5,2.8,0.6,4.2,0.2c0.8-0.2,1.6-0.5,2.4-0.7c0.3-0.1,0.7-0.2,1-0.2c0.6-0.2,1.2-0.2,1.9-0.1c1.7,0.2,3.4,0.5,5,1
			c1.5,0.5,2.6,1.3,3.5,2.6c0,0.1,0.1,0.1,0.1,0.2c0.3,0.5,0.2,0.9-0.1,1.3c0,0.1-0.2,0.1-0.3,0.1c-0.3-0.1-0.5-0.3-0.8-0.4
			c-0.4-0.2-0.7-0.5-1.1-0.7c-0.4-0.2-0.8-0.4-1.3-0.5c-0.3-0.1-0.6,0-0.9,0.1c-0.1,0.1-0.2,0.1-0.2,0.2c-0.1,0.1,0,0.3,0.2,0.4
			c0.1,0,0.2,0,0.3,0c0.6-0.1,1,0.1,1.5,0.4c0.3,0.2,0.7,0.4,1,0.7c0.5,0.3,1,0.6,1.6,0.6c0.2,0,0.3,0.1,0.3,0.3
			c0.3,0.7,0.5,1.4,0.4,2.2c0,0.2-0.1,0.4-0.2,0.6c-0.9,1.6-2.2,2.8-3.6,3.9c-0.4,0.3-0.8,0.6-1.2,0.9c-0.4,0.4-0.8,0.8-1.3,1.2
			c0,0.4-0.4,0.6-0.6,0.8c-0.3,0.2-0.5,0.5-0.8,0.7c-0.6,0.4-1.1,0.9-1.7,1.4c-0.5,0.4-0.8,0.9-1.1,1.5c-0.2,0.6-0.5,1.2-0.7,1.8
			c-1,2.5-2.4,4.7-4.3,6.6c-0.7,0.7-1.4,1.5-2.1,2.3c-0.9,1.1-1.7,2.3-2.4,3.6c-0.4,0.8-0.7,1.5-0.8,2.4c-0.1,0.5-0.1,0.9-0.1,1.4
			c0,1.1-0.1,2.3-0.2,3.4c-0.2,1.5-0.6,3-1.1,4.4c-0.6,1.4-1.2,2.8-2,4.1c-1,1.7-2.1,3.3-3.4,4.7c-0.4,0.5-0.8,0.9-1.2,1.4
			c-0.4,0.5-0.8,0.9-1.3,1.4c-0.1,0.1-0.3,0.3-0.4,0.4c-0.5,0.3-0.9,0.7-1.2,1.1c-0.9,0.9-2,1.7-3.2,2.2c-0.7,0.3-1.4,0.6-2.1,0.9
			c-0.2,0.1-0.4,0.2-0.6,0.3c-0.1,0.1-0.2,0.2-0.3,0.3s-0.1,0.3-0.2,0.5c-0.1,0.3-0.1,0.6-0.2,0.9c-0.2,0.7-0.5,1.4-0.6,2.1
			c-0.1,0.9-0.2,1.8-0.2,2.7c0.1,1.7,0.6,3.3,1,4.8c0.3,0.9,0.6,1.8,0.7,2.7c0.1,0.5,0.2,1,0.2,1.5c0.1,0.7,0,1.3-0.2,1.9
			c-0.3,0.9-0.6,1.8-0.9,2.7c-0.2,0.6-0.5,1.3-0.7,1.9c-0.5,1.6-1.3,3.1-2,4.6c-0.4,0.8-0.9,1.6-1.4,2.3c-0.2,0.2-0.4,0.5-0.6,0.6
			c-0.7,0.6-1.7,0.6-2.4,0.1c-0.4-0.3-0.8-0.7-1.1-1.1c-0.4-0.7-0.6-1.5-0.7-2.3c-0.1-1.6,0-3.1,0.8-4.5c0.2-0.3,0.3-0.7,0.5-1
			c0.2-0.5,0.5-0.9,0.7-1.4c0.5-0.9,0.8-1.8,1.1-2.7c0.2-0.7,0.2-1.3-0.2-2c-0.2-0.3-0.4-0.7-0.6-1.1c-0.9-1.7-1.5-3.6-1.7-5.5
			c-0.2-1.3-0.3-2.6-0.4-3.9c-0.1-0.9-0.3-1.7-0.9-2.3c-0.8-0.9-1.3-2-1.6-3.1c-0.1-0.2-0.2-0.3-0.3-0.3c-0.4-0.1-0.9-0.2-1.3-0.2
			c-0.8-0.1-1.6-0.1-2.4-0.2c-1.1-0.1-2.2-0.1-3.4-0.1c-0.1,0-0.3,0-0.4,0c-0.7,0-0.8,0.1-1,0.8c0,0.1-0.1,0.1-0.1,0.2
			c-0.3,1.6-1,2.9-2,4c-0.9,1-1.8,2-2.8,3.1c-0.6,0.6-1.1,1.3-1.6,2.1c-0.3,0.4-0.6,0.9-0.8,1.4c-0.5,1.1-0.7,2.3-0.6,3.4
			c0.1,1.3,0.5,2.5,0.7,3.8c0.2,0.9,0.4,1.8,0.4,2.7c0.1,0.9,0,1.7-0.3,2.5c-0.2,0.6-0.5,1.2-0.8,1.8c-0.8,1.3-1.7,2.6-2.5,3.8
			c-0.3,0.4-0.6,0.9-0.9,1.3c-0.6,1-1,2.2-1.3,3.4c0,0.2-0.1,0.4,0,0.6c0.1,0.1,0.1,0.3,0.1,0.4c0,1.6,0.5,3,1.4,4.2
			c0.3,0.5,0.7,0.9,1.1,1.3c0.5,0.5,1,0.9,1.7,1.1c0.5,0.2,1.1,0.3,1.6,0.4c1.1,0.2,2,0.8,2.8,1.5c0.7,0.6,1.5,1.3,2.1,2
			c0.4,0.5,0.9,0.9,1.5,1.2c0,0,0.1,0.1,0.1,0.1c0,0-0.1,0-0.1,0c-0.1,0-0.3,0-0.4,0c-0.1,0-0.2,0.1-0.3,0.1
			c-0.1,0.1-0.2,0.2-0.1,0.3c0,0.1,0.2,0.2,0.2,0.2c0.3,0,0.5,0,0.8,0c0.8-0.1,1.6-0.1,2.5,0.1c0.5,0.1,1.1,0.3,1.5,0.7
			c0.4,0.3,0.7,0.6,1.1,0.9c0.2,0.2,0.5,0.3,0.7,0.4c0.8,0.2,1.4,0.6,2.1,1c0.1,0.1,0.2,0.1,0.3,0.2c0.4,0.1,0.5,0.5,0.5,0.8
			c0,0.4-0.2,0.7-0.6,0.9c-0.2,0.1-0.3,0.1-0.5,0.2c-0.1,0-0.2,0-0.4,0c-0.4,0-0.8,0.1-1.2,0c-0.4-0.1-0.5-0.5-0.8-0.8
			c-0.4-0.4-0.7-0.7-1.2-1.1c-0.6-0.5-1.2-0.8-2-0.9c-0.4,0-0.7-0.2-1-0.5c-0.4-0.3-0.7-0.5-1.1-0.8c-0.7-0.5-1.5-0.7-2.3-0.8
			c-0.4,0-0.8,0.1-1.2,0.1c-0.1,0-0.3,0.1-0.4,0.2c0,0-0.1,0.1-0.1,0.2c0,0.1,0,0.1,0,0.2c0.1,0.1,0.2,0.2,0.4,0.2
			c0.1,0,0.1,0,0.2-0.1c1-0.3,1.9-0.1,2.7,0.4c0.4,0.2,0.8,0.5,1.1,0.8c0.5,0.4,1,0.7,1.6,0.8c0.5,0.1,1,0.3,1.4,0.6
			c0.3,0.2,0.6,0.5,0.9,0.8c0.2,0.2,0.5,0.3,0.5,0.6c-0.3,0.2-0.5,0.4-0.8,0.4c-0.3,0.1-0.7,0.2-1,0.1c-1.1-0.1-2.1,0-3.2,0
			C113.9,667.1,113.6,667.1,113.3,667.1L113.3,667.1z M154.9,563.3c0.9,0,1.8-0.5,2.4-1.3c0.5-0.6,0.8-1.3,1.4-1.9
			c0,0,0.1-0.1,0.1-0.1c0-0.1,0-0.1,0-0.2c0-0.1,0-0.1-0.1-0.2c0,0-0.1-0.1-0.1-0.1c-0.5-0.2-0.8-0.5-1.2-0.7
			c-0.2-0.1-0.3-0.2-0.5-0.3c-0.5-0.2-0.9-0.3-1.4-0.2c-0.7,0.1-1.2,0.4-1.8,0.7c-0.5,0.3-0.8,0.7-1.1,1.1c-0.3,0.5-0.5,1-0.9,1.5
			c-0.1,0.1-0.1,0.4,0.1,0.5c0.1,0.1,0.2,0.1,0.3,0.1c0.4,0.1,0.7,0.3,1.1,0.5C153.6,563.1,154.2,563.3,154.9,563.3z M130.3,548.4
			c-0.2,0-0.3,0-0.3,0c-0.1,0-0.2,0.1-0.2,0.2c-0.1,0.1,0,0.3,0.1,0.3c0.2,0.1,0.3,0.2,0.5,0.2c1.8,0.6,3.3,1.6,4.6,3.1
			c1,1.1,1.9,2.4,2.8,3.6c0.7,1,1.5,2,2.3,3c0.9,1.2,2.1,2,3.5,2.4c0.2,0.1,0.4,0.1,0.6,0.1c0.1,0,0.2-0.1,0.2-0.2
			c0-0.1,0-0.3-0.1-0.3c-0.2-0.1-0.3-0.1-0.5-0.2c-1.3-0.5-2.4-1.2-3.2-2.3c-0.3-0.3-0.5-0.6-0.7-0.9c-0.9-1.3-1.9-2.6-2.8-3.9
			c-0.8-1.1-1.7-2.1-2.7-3c-1-0.8-2-1.4-3.2-1.9C130.8,548.5,130.5,548.4,130.3,548.4z"/>
		<path class="st2" d="M86.7,635.2c0.8,0.1,1.6,0,2.3,0.3c1.1,0.3,2.3,0.5,3.5,0.6c0.1,0,0.2,0,0.3,0.1c0.1,0,0.1,0.1,0.1,0.2
			c-0.1,0.2-0.2,0.3-0.4,0.5c-0.6,0.7-1.2,1.3-1.8,2c-0.6,0.7-1.1,1.5-1.5,2.3c-0.4,0.8-0.6,1.6-0.6,2.5c0,1.5,0.7,2.8,1.9,3.6
			c0.4,0.3,0.8,0.5,1.1,0.7c0.5,0.3,0.5,0.3,0.2,0.8c-0.1,0.2-0.3,0.4-0.4,0.6c-0.7,0.9-1,1.9-1.1,3c-0.1,0.5,0,1,0.1,1.4
			c0.2,0.5,0.4,1.1,0.6,1.6c0.2,0.4,0.5,0.8,0.9,1.1c0.1,0.1,0.2,0.2,0.3,0.3c0,0,0,0.1,0.1,0.1c-0.1,0-0.1,0.1-0.2,0.1
			c-0.7-0.1-1.4-0.1-2.2-0.2c-0.3,0-0.6-0.1-1-0.1c-0.2,0-0.5-0.1-0.7-0.1c-0.6-0.1-1-0.5-1.2-1c-0.2-0.4-0.5-0.8-0.5-1.3
			c0-0.1-0.1-0.2-0.2-0.3c-1-1.6-2.1-3-3.6-4.1c-0.9-0.7-1.8-1.4-2.7-2.1c-0.2-0.2-0.4-0.3-0.6-0.5c-0.6-0.5-1-1.2-1.2-2
			c-0.1-0.6,0.1-1.1,0.2-1.7c0.3-0.9,0.7-1.6,1.3-2.3c0.7-0.9,1.6-1.8,2.6-2.4c0.3-0.2,0.6-0.4,0.9-0.6c0.5-0.4,0.9-0.9,1.2-1.5
			c0.1-0.2,0.1-0.3,0.1-0.5c0.1-0.5,0.1-0.5,0.5-0.6C85.8,635.3,86.2,635.3,86.7,635.2z M151.2,629.9c-0.8,0-1.5-0.2-2.2-0.5
			c-1.5-0.7-2.9-1.6-4.1-2.5c-1.1-0.9-2.1-2-2.7-3.2c-0.1-0.2-0.3-0.5-0.4-0.7c-0.5-1-1.1-1.9-1.9-2.7c-1.1-1.1-2.3-2.1-3.5-3.1
			c-0.1-0.1-0.2-0.2-0.3-0.2c0,0-0.1-0.1,0-0.2c0.1-0.1,0.2-0.1,0.3-0.2c0.5-0.2,1.1-0.4,1.6-0.6c1.4-0.6,2.7-1.4,3.7-2.5
			c0.1-0.1,0.2-0.2,0.3-0.3c0,0,0.2,0,0.2,0c0.1,0.1,0.2,0.2,0.3,0.2c1.7,1.7,3.2,3.5,4.3,5.6c0.4,0.8,1,1.5,1.8,2.1
			c1,0.7,1.8,1.6,2.5,2.6c1,1.4,1.8,2.9,2.5,4.5c0.1,0.1,0.1,0.3,0.1,0.4c0.1,0.5-0.1,0.9-0.6,1
			C152.6,629.8,151.9,629.9,151.2,629.9z M136,560.9c-0.1,0-0.2,0-0.3,0c-1.4-0.4-2.7-0.8-4-1.5c-1.6-0.9-2.9-2-4.1-3.4
			c-0.4-0.4-0.7-0.9-1.1-1.3c-0.6-0.8-1.2-1.5-1.9-2.3c-0.6-0.7-1.2-1.2-1.9-1.8c-0.5-0.4-1-0.6-1.5-0.8c-0.6-0.2-1.1-0.5-1.6-0.9
			c-0.3-0.3-0.7-0.5-1-0.7c-0.2-0.2-0.4-0.3-0.6-0.5c-0.2-0.2-0.3-0.5-0.1-0.8c0.1-0.2,0.2-0.3,0.4-0.5c0.5-0.5,1.2-0.8,1.9-0.9
			c1-0.1,2.1-0.1,3.1,0c0.4,0.1,0.7,0.2,0.9,0.6c0.3,0.5,0.7,1,1,1.5c0.5,0.8,1,1.6,1.7,2.2c0.4,0.4,0.9,0.8,1.4,1.2
			c0.5,0.4,1,0.7,1.4,1.1c0.9,0.8,1.8,1.7,2.4,2.8c0.6,1,1.3,2,1.9,3.1c0.6,1,1.2,2,2,2.8C136,560.8,136,560.8,136,560.9
			C136,560.9,136,560.9,136,560.9z M117.5,660.3c1,0,1.9,0.3,2.7,1.2c0.3,0.4,0.7,0.8,0.9,1.2c0,0,0,0.1,0,0.1
			c-0.1,0-0.1,0.1-0.2,0.1c-0.4-0.1-0.7-0.2-1-0.4c-0.3-0.3-0.6-0.5-0.9-0.7c-0.7-0.6-1.6-0.9-2.5-1c-0.2,0-0.4,0-0.7-0.1
			c0,0,0,0,0,0c0,0,0-0.1,0.1-0.1C116.3,660.4,116.9,660.3,117.5,660.3z"/>
		<path class="st2" d="M136,560.9L136,560.9C136.1,560.9,136,560.9,136,560.9C136,560.9,136,560.9,136,560.9L136,560.9z
			 M155.6,559.3c1,0,1.7,0.9,1.4,1.9c-0.3,0.8-1.1,1.5-2.2,1.1c-0.8-0.3-1.1-1.3-0.7-2.1C154.4,559.7,154.9,559.4,155.6,559.3z
			 M583.6,675.1c1.1,0,2.2,0,3.4,0c0.9,0,1.7-0.1,2.6-0.3c0.2-0.1,0.5-0.2,0.7-0.3c0.4-0.1,0.6-0.4,0.9-0.7c1.3-1.6,2.7-3.2,4.3-4.5
			c0.9-0.7,1.9-1.4,2.9-1.9c0.7-0.4,1.3-0.7,2-1.1c0.7-0.4,1.4-0.9,2.2-1.4c0.2-0.1,0.3-0.3,0.6-0.3c0.1,0,0.1-0.1,0.2-0.1
			c0.5-0.4,0.9-0.9,1.4-1.3c1.2-1.7,1.3-3.1,0.4-5c-0.1-0.2-0.3-0.5-0.5-0.7c-0.5-0.7-0.9-1.4-1.2-2.2c-0.1-0.2-0.2-0.4-0.3-0.5
			c-0.5-0.9-1-1.8-1.5-2.8c-0.1-0.2-0.2-0.5-0.3-0.8c-1.1-2.8-0.6-5.4,1.3-7.7c0.2-0.2,0.4-0.4,0.5-0.6c0.2-0.4,0.6-0.5,1-0.6
			c0.6-0.2,1.3-0.3,1.9-0.3c0.3,0,0.5,0,0.8,0c1.4,0,2.7,0,4.1,0c0.4,0,0.7-0.1,1.1-0.1c0.6-0.1,1.3-0.1,1.9-0.2
			c0.2,0,0.5,0,0.7-0.1c0.4-0.2,0.6,0,0.8,0.2c0.2,0.2,0.3,0.4,0.4,0.5c0.5,0.6,1.2,1.1,1.9,1.4c1,0.5,2.1,0.8,3.2,1
			c0.8,0.1,1.5,0,2.2-0.5c0.3-0.2,0.7-0.4,1-0.4c0.1,0,0.2,0,0.3-0.1c0.4-0.1,0.6-0.3,0.7-0.7c0-0.1,0-0.2,0.1-0.3
			c0.1-0.2,0.2-0.3,0.4-0.3c0.3,0,0.6,0,1,0c0.2,0,0.4,0.1,0.7,0.1c0.4,0,0.6-0.3,0.5-0.7c0-0.1-0.1-0.2-0.1-0.3
			c0-0.2,0-0.3,0.2-0.3c0.2-0.1,0.3-0.1,0.5-0.2c0.2-0.1,0.3-0.4,0.1-0.6c-0.1-0.1-0.2-0.1-0.3-0.2c-0.7-0.5-1.4-1-2.1-1.6
			c-0.4-0.3-0.9-0.7-1.4-0.9c-0.1-0.1-0.1-0.1,0-0.2c0.7-0.5,1.3-1.1,1.9-1.7c0.5-0.5,0.9-1.1,1.3-1.7c0.9-1.6,1.6-3.4,1.8-5.3
			c0.2-1.8,0.1-3.5-0.4-5.2c-0.5-1.6-1-3.2-1.5-4.7c-0.4-1.4-1.1-2.6-1.9-3.8c-0.4-0.6-0.7-1.2-1-1.8c-1.5-2.8-3.2-5.4-5.3-7.8
			c-3.4-3.9-7.4-7.2-11.7-10c-5.1-3.2-10.6-5.7-16.3-7.5c-3.6-1.2-7.3-2.2-11.1-2.9c-0.8-0.2-1.6-0.3-2.4-0.4
			c-0.1,0-0.3-0.1-0.4-0.1c-0.7-0.2-1.5-0.4-2.2-0.6c-1-0.3-2-0.8-2.9-1.3c-1-0.6-2.1-1.2-3.2-1.7c-1.4-0.7-2.9-1-4.4-1
			c-0.7,0-1.4,0-2.1,0c-0.5,0-1-0.1-1.4-0.4c-0.7-0.5-1.5-1-2.3-1.4c-0.6-0.3-1.2-0.7-1.7-1.1c-0.3-0.2-0.4-0.4-0.3-0.8
			c0.2-1.2,0.1-2.4,0.1-3.5c0-0.7-0.2-1.3-0.6-1.9c-0.2-0.3-0.4-0.6-0.6-0.9c-0.1-0.2-0.1-0.3,0.1-0.4c0.2-0.2,0.4-0.3,0.6-0.4
			c0.6-0.3,1.2-0.6,1.9-0.7c0.2,0,0.4-0.1,0.6-0.1c0.7-0.2,1.3-0.5,1.7-1.1c0.4-0.5,0.7-1,1.1-1.6c0.6-1,1.2-1.9,1.8-2.9
			c1.1-1.8,2.5-3.4,4.2-4.6c1.3-0.9,2.4-2.1,3.2-3.5c0.4-0.7,0.8-1.4,1.3-2c0.1-0.1,0.1-0.2,0.1-0.3c0-0.4-0.3-1-0.7-1.1
			c-0.5-0.2-0.9-0.3-1.5-0.3c-0.4,0-0.8,0-1.1,0c-1.1-0.1-2.1,0.2-3,0.7c-0.9,0.5-1.9,1-2.7,1.7c-0.4,0.3-0.7,0.6-1.1,0.9
			c-0.7,0.6-1.4,1.3-1.9,2.1c-0.6,0.8-1.2,1.7-1.8,2.5c-0.9,1.1-1.8,2.2-2.7,3.3c-0.9,1.1-2,1.8-3.2,2.5c-0.2,0.1-0.4,0.2-0.5,0.2
			c-0.4,0.1-0.8,0.2-1.2-0.1c-0.4-0.2-0.7-0.4-1.1-0.5c-1-0.5-2-1.1-3.1-1.5c-1-0.4-2-0.6-3-0.5c-0.2,0-0.4,0.1-0.6,0.1
			c-1.4,0.5-2.8,0.6-4.2,0.2c-0.8-0.2-1.6-0.5-2.4-0.7c-0.3-0.1-0.7-0.2-1-0.2c-0.6-0.2-1.2-0.2-1.9-0.1c-1.7,0.2-3.4,0.5-5,1
			c-1.5,0.5-2.6,1.3-3.5,2.6c0,0.1-0.1,0.1-0.1,0.2c-0.3,0.5-0.2,0.9,0.1,1.3c0,0.1,0.2,0.1,0.3,0.1c0.3-0.1,0.5-0.3,0.8-0.4
			c0.4-0.2,0.7-0.5,1.1-0.7c0.4-0.2,0.8-0.4,1.3-0.5c0.3-0.1,0.6,0,0.9,0.1c0.1,0.1,0.1,0.1,0.2,0.2c0.1,0.1,0,0.3-0.2,0.4
			c-0.1,0-0.2,0-0.3,0c-0.5-0.1-1,0.1-1.5,0.4c-0.3,0.2-0.7,0.4-1,0.6c-0.5,0.3-1,0.6-1.6,0.6c-0.2,0-0.3,0.1-0.3,0.3
			c-0.3,0.7-0.5,1.4-0.4,2.2c0,0.2,0.1,0.4,0.2,0.6c0.9,1.6,2.2,2.8,3.6,3.9c0.4,0.3,0.8,0.6,1.2,0.9c0.4,0.4,0.8,0.8,1.3,1.2
			c0,0.4,0.4,0.6,0.6,0.8c0.3,0.2,0.5,0.5,0.8,0.7c0.6,0.4,1.1,0.9,1.7,1.4c0.5,0.4,0.8,0.9,1.1,1.5c0.2,0.6,0.5,1.2,0.7,1.8
			c1,2.5,2.4,4.7,4.3,6.6c0.7,0.7,1.4,1.5,2.1,2.3c0.9,1.1,1.7,2.3,2.4,3.6c0.4,0.8,0.7,1.5,0.8,2.4c0.1,0.5,0.1,0.9,0.1,1.4
			c0,1.1,0.1,2.3,0.2,3.4c0.2,1.5,0.6,3,1.1,4.4c0.6,1.4,1.2,2.8,2,4.1c1,1.7,2.2,3.3,3.4,4.7c0.4,0.5,0.8,0.9,1.2,1.4
			c0.4,0.5,0.8,0.9,1.3,1.4c0.1,0.1,0.3,0.3,0.5,0.4c0.5,0.3,0.9,0.7,1.2,1.1c0.9,0.9,2,1.7,3.2,2.2c0.7,0.3,1.4,0.6,2.1,0.9
			c0.2,0.1,0.4,0.2,0.6,0.3c0.3,0.2,0.4,0.5,0.5,0.8c0.1,0.3,0.1,0.6,0.2,0.9c0.2,0.7,0.5,1.4,0.6,2.1c0.1,0.9,0.2,1.8,0.2,2.7
			c-0.1,1.7-0.6,3.3-1,4.8c-0.3,0.9-0.6,1.8-0.7,2.7c-0.1,0.5-0.2,1-0.2,1.5c-0.1,0.7,0,1.3,0.2,1.9c0.3,0.9,0.6,1.8,0.9,2.7
			c0.2,0.6,0.5,1.3,0.7,1.9c0.5,1.6,1.3,3.1,2,4.6c0.4,0.8,0.9,1.6,1.4,2.3c0.2,0.2,0.4,0.5,0.6,0.6c0.7,0.6,1.7,0.6,2.4,0.1
			c0.4-0.3,0.8-0.7,1.1-1.1c0.4-0.7,0.6-1.5,0.7-2.3c0.1-1.6,0-3.1-0.8-4.5c-0.2-0.3-0.3-0.7-0.5-1c-0.2-0.5-0.5-0.9-0.7-1.4
			c-0.5-0.9-0.8-1.8-1.1-2.7c-0.2-0.7-0.2-1.3,0.2-2c0.2-0.3,0.4-0.7,0.6-1.1c0.9-1.7,1.5-3.6,1.7-5.5c0.2-1.3,0.3-2.6,0.4-3.9
			c0.1-0.9,0.3-1.7,0.9-2.3c0.8-0.9,1.3-2,1.6-3.1c0.1-0.2,0.2-0.3,0.3-0.3c0.4-0.1,0.9-0.2,1.3-0.2c0.8-0.1,1.6-0.1,2.4-0.2
			c1.1-0.1,2.2-0.1,3.4-0.1c0.1,0,0.3,0,0.4,0c0.7,0,0.8,0.1,1,0.8c0,0.1,0.1,0.1,0.1,0.2c0.2,1.6,1,2.9,2,4c0.9,1,1.8,2,2.8,3.1
			c0.6,0.6,1.1,1.3,1.6,2.1c0.3,0.4,0.6,0.9,0.8,1.4c0.5,1.1,0.7,2.3,0.6,3.4c-0.1,1.3-0.5,2.5-0.7,3.8c-0.2,0.9-0.4,1.8-0.4,2.7
			c-0.1,0.8,0,1.7,0.3,2.5c0.2,0.6,0.5,1.2,0.8,1.8c0.8,1.3,1.7,2.6,2.5,3.8c0.3,0.4,0.6,0.9,0.9,1.3c0.6,1,1,2.2,1.3,3.4
			c0,0.2,0.1,0.4,0,0.6c-0.1,0.1-0.1,0.3-0.1,0.4c0,1.6-0.5,2.9-1.4,4.2c-0.3,0.5-0.7,0.9-1.1,1.3c-0.5,0.5-1,0.9-1.7,1.1
			c-0.5,0.2-1.1,0.3-1.6,0.4c-1.1,0.2-2,0.8-2.8,1.5c-0.7,0.6-1.5,1.3-2.1,2c-0.4,0.5-0.9,0.9-1.5,1.2c0,0-0.1,0.1-0.1,0.1
			c0,0,0.1,0,0.1,0c0.1,0,0.3,0,0.4,0c0.1,0,0.2,0.1,0.3,0.1c0.1,0.1,0.2,0.2,0.1,0.3c0,0.1-0.2,0.2-0.2,0.2c-0.3,0-0.5,0-0.8,0
			c-0.8-0.1-1.6-0.1-2.5,0.1c-0.5,0.1-1.1,0.3-1.5,0.7c-0.4,0.3-0.7,0.6-1.1,0.9c-0.2,0.2-0.5,0.3-0.7,0.4c-0.8,0.2-1.4,0.6-2.1,1
			c-0.1,0.1-0.2,0.1-0.3,0.2c-0.4,0.1-0.5,0.5-0.5,0.8c0,0.4,0.2,0.7,0.6,0.9c0.2,0.1,0.3,0.1,0.5,0.2c0.1,0,0.2,0,0.4,0
			c0.4,0,0.8,0.1,1.2,0c0.4-0.1,0.5-0.5,0.8-0.8c0.4-0.4,0.7-0.7,1.2-1.1c0.6-0.5,1.2-0.8,2-0.9c0.4,0,0.7-0.2,1-0.5
			c0.4-0.3,0.7-0.5,1.1-0.8c0.7-0.5,1.5-0.7,2.3-0.8c0.4,0,0.8,0.1,1.2,0.1c0.1,0,0.3,0.1,0.4,0.2c0,0,0.1,0.1,0.1,0.2
			c0,0.1,0,0.1,0,0.2c0,0.1-0.1,0.1-0.1,0.2c-0.1,0-0.1,0.1-0.2,0c-0.1,0-0.1,0-0.2-0.1c-1-0.3-1.9-0.1-2.7,0.4
			c-0.4,0.2-0.8,0.5-1.1,0.8c-0.5,0.4-1,0.7-1.6,0.8c-0.5,0.1-1,0.3-1.4,0.6c-0.3,0.2-0.6,0.5-0.9,0.8c-0.2,0.2-0.5,0.3-0.5,0.6
			c0.3,0.2,0.5,0.4,0.8,0.4c0.3,0.1,0.7,0.2,1,0.1c1.1-0.1,2.1,0,3.2,0C583,675.1,583.3,675.1,583.6,675.1L583.6,675.1z M542,571.2
			c-0.9,0-1.8-0.5-2.4-1.3c-0.5-0.6-0.8-1.3-1.4-1.9c0,0-0.1-0.1-0.1-0.1s0-0.1,0-0.2c0-0.1,0-0.1,0.1-0.2c0,0,0.1-0.1,0.1-0.1
			c0.5-0.2,0.8-0.5,1.2-0.7c0.2-0.1,0.3-0.2,0.5-0.3c0.5-0.2,0.9-0.3,1.4-0.2c0.6,0.1,1.2,0.4,1.8,0.7c0.5,0.3,0.8,0.7,1.1,1.1
			c0.3,0.5,0.5,1.1,0.9,1.5c0.1,0.1,0.1,0.4-0.1,0.5c-0.1,0.1-0.2,0.1-0.3,0.1c-0.4,0.1-0.7,0.3-1.1,0.5
			C543.3,571,542.7,571.2,542,571.2z M566.6,556.3c0.2,0,0.3,0,0.3,0c0.1,0,0.2,0.1,0.2,0.2c0.1,0.1,0,0.3-0.1,0.3
			c-0.2,0.1-0.3,0.2-0.5,0.2c-1.8,0.6-3.3,1.6-4.6,3.1c-1,1.1-1.9,2.4-2.8,3.6c-0.7,1-1.5,2-2.3,3c-0.9,1.2-2.1,2-3.5,2.4
			c-0.2,0.1-0.4,0.1-0.6,0.1c-0.1,0-0.2-0.1-0.2-0.2c0-0.1,0-0.3,0.1-0.3c0.1-0.1,0.3-0.1,0.5-0.2c1.3-0.5,2.4-1.2,3.2-2.3
			c0.3-0.3,0.5-0.6,0.7-0.9c0.9-1.3,1.9-2.6,2.8-3.9c0.8-1.1,1.7-2.1,2.7-3c1-0.8,2-1.4,3.2-1.9
			C566.1,556.5,566.4,556.4,566.6,556.3z"/>
		<path class="st2" d="M610.2,643.2c-0.8,0.1-1.6,0-2.3,0.3c-1.1,0.3-2.3,0.5-3.5,0.6c-0.1,0-0.2,0-0.3,0.1c-0.1,0-0.1,0.1-0.1,0.2
			c0.1,0.2,0.2,0.3,0.4,0.5c0.6,0.7,1.2,1.3,1.8,2c0.6,0.7,1.1,1.5,1.5,2.3c0.4,0.8,0.6,1.6,0.6,2.5c0,1.5-0.7,2.8-1.9,3.6
			c-0.4,0.3-0.8,0.5-1.1,0.7c-0.5,0.3-0.5,0.3-0.2,0.8c0.1,0.2,0.3,0.4,0.4,0.6c0.7,0.9,1,1.9,1.1,3c0.1,0.5,0,1-0.1,1.4
			c-0.2,0.5-0.4,1.1-0.6,1.6c-0.2,0.4-0.5,0.8-0.9,1.1c-0.1,0.1-0.2,0.2-0.3,0.3c0,0,0,0.1-0.1,0.1c0.1,0,0.1,0.1,0.2,0.1
			c0.7-0.1,1.4-0.1,2.2-0.2c0.3,0,0.6-0.1,1-0.1c0.2,0,0.5-0.1,0.7-0.1c0.6-0.1,1-0.5,1.2-1c0.2-0.4,0.5-0.8,0.5-1.3
			c0-0.1,0.1-0.2,0.2-0.3c1-1.6,2.1-3,3.6-4.1c0.9-0.7,1.8-1.4,2.7-2.1c0.2-0.2,0.4-0.3,0.6-0.5c0.6-0.5,1-1.2,1.2-2
			c0.1-0.6-0.1-1.1-0.2-1.7c-0.3-0.9-0.7-1.6-1.3-2.3c-0.7-0.9-1.6-1.8-2.6-2.4c-0.3-0.2-0.6-0.4-0.9-0.6c-0.5-0.4-0.9-0.9-1.2-1.5
			c-0.1-0.2-0.1-0.3-0.1-0.5c-0.1-0.5-0.1-0.5-0.5-0.6C611.2,643.3,610.7,643.3,610.2,643.2z M545.7,637.9c0.8,0,1.5-0.2,2.2-0.5
			c1.5-0.7,2.9-1.6,4.1-2.5c1.1-0.9,2.1-2,2.7-3.2c0.1-0.2,0.3-0.5,0.4-0.7c0.5-1,1.1-1.9,1.9-2.7c1.1-1.1,2.3-2.1,3.5-3.1
			c0.1-0.1,0.2-0.2,0.3-0.2c0,0,0.1-0.1,0-0.2c-0.1-0.1-0.2-0.1-0.3-0.2c-0.5-0.2-1.1-0.4-1.6-0.6c-1.4-0.6-2.7-1.4-3.7-2.5
			c-0.1-0.1-0.2-0.2-0.3-0.3c0,0-0.2,0-0.2,0c-0.1,0.1-0.2,0.2-0.3,0.2c-1.7,1.7-3.2,3.5-4.3,5.6c-0.4,0.8-1,1.5-1.8,2.1
			c-1,0.7-1.8,1.6-2.5,2.6c-1,1.4-1.8,2.9-2.5,4.5c-0.1,0.1-0.1,0.3-0.1,0.4c-0.1,0.5,0.1,0.9,0.6,1
			C544.4,637.8,545,637.9,545.7,637.9z M560.9,568.8c0.1,0,0.2,0,0.3,0c1.4-0.4,2.7-0.8,4-1.5c1.6-0.9,2.9-2,4.1-3.4
			c0.4-0.4,0.7-0.9,1.1-1.3c0.6-0.8,1.2-1.5,1.9-2.3c0.6-0.7,1.2-1.2,1.9-1.8c0.5-0.4,1-0.6,1.5-0.8c0.6-0.2,1.1-0.5,1.6-0.9
			c0.3-0.3,0.7-0.5,1-0.7c0.2-0.2,0.4-0.3,0.6-0.5c0.2-0.2,0.3-0.5,0.1-0.8c-0.1-0.2-0.2-0.3-0.4-0.5c-0.5-0.5-1.2-0.8-1.9-0.9
			c-1-0.1-2.1-0.1-3.1,0c-0.4,0.1-0.7,0.2-0.9,0.6c-0.3,0.5-0.7,1-1,1.5c-0.5,0.8-1,1.6-1.7,2.2c-0.4,0.4-0.9,0.8-1.4,1.2
			c-0.5,0.4-1,0.7-1.4,1.1c-0.9,0.8-1.8,1.7-2.4,2.8c-0.6,1-1.3,2-1.9,3.1c-0.6,1-1.2,2-2,2.8C560.9,568.8,560.9,568.8,560.9,568.8
			L560.9,568.8z M579.5,668.3c-1,0-1.9,0.4-2.7,1.2c-0.3,0.4-0.7,0.8-0.9,1.2c0,0,0,0.1,0,0.1c0.1,0,0.1,0.1,0.2,0.1
			c0.4-0.1,0.7-0.2,1-0.4c0.3-0.3,0.6-0.5,0.9-0.7c0.7-0.6,1.6-0.9,2.5-1c0.2,0,0.4,0,0.7-0.1c0,0,0,0,0,0c0,0,0-0.1-0.1-0.1
			C580.6,668.4,580,668.3,579.5,668.3z"/>
		<path class="st2" d="M560.9,568.9L560.9,568.9C560.9,568.9,560.9,568.9,560.9,568.9C560.9,568.9,560.9,568.9,560.9,568.9
			L560.9,568.9z M541.3,567.3c-1,0-1.7,0.9-1.4,1.9c0.2,0.8,1.1,1.5,2.2,1.1c0.8-0.3,1.1-1.3,0.7-2.1
			C542.5,567.7,542,567.3,541.3,567.3z"/>
		<path class="st3" d="M348.1,61.9l3.6,7.3l7.7-2.6l-2.6,7.7l7.3,3.6l-7.3,3.6l2.6,7.7l-7.7-2.6l-3.6,7.3l-3.6-7.3l-7.7,2.6l2.6-7.7
			l-7.3-3.6l7.3-3.6l-2.6-7.7l7.7,2.6L348.1,61.9z M88.6,332.5l3.6,7.3l7.7-2.6l-2.6,7.7l7.3,3.6l-7.3,3.6l2.6,7.7l-7.7-2.6
			l-3.6,7.3l-3.6-7.3l-7.7,2.6l2.6-7.7l-7.3-3.6l7.3-3.6l-2.6-7.7l7.7,2.6L88.6,332.5z M605.7,332.5l3.6,7.3l7.7-2.6l-2.6,7.7
			l7.3,3.6l-7.3,3.6l2.6,7.7l-7.7-2.6l-3.6,7.3l-3.6-7.3l-7.7,2.6l2.6-7.7l-7.3-3.6l7.3-3.6l-2.6-7.7l7.7,2.6L605.7,332.5z
			 M348.1,594.1l3.6,7.3l7.7-2.6l-2.6,7.7l7.3,3.6l-7.3,3.6l2.6,7.7l-7.7-2.6l-3.6,7.3l-3.6-7.3l-7.7,2.6l2.6-7.7l-7.3-3.6l7.3-3.6
			l-2.6-7.7l7.7,2.6L348.1,594.1z"/>
		<path class="st2" d="M571.1,120.7c1.5,0,3-0.1,4.5-0.1c1.1,0,2.2-0.1,3.2-0.2c1-0.1,2.1-0.2,3.1-0.3c2-0.2,4-0.5,5.9-0.8
			c3.8-0.6,7.5-1.5,11.2-2.8c1.9-0.7,3.8-1.4,5.6-2.4c1.3-0.7,2.6-1.4,3.7-2.4c1-0.8,2-1.7,2.7-2.8c0.5-0.7,0.9-1.5,1.1-2.3
			c0.4-1.2,0.3-2.5-0.2-3.7c-0.4-1-0.9-1.8-1.6-2.6c-0.6-0.7-1.4-1.3-2.1-1.9c-1.5-1.1-3-1.9-4.7-2.6c-1-0.4-2-0.8-3-1.2
			c-0.3-0.1-0.6-0.2-0.9-0.3c-1.1-0.4-2.2-0.7-3.3-0.9c-1-0.2-1.9-0.4-2.9-0.6c-1.2-0.2-2.3-0.4-3.5-0.6c-1-0.2-2-0.3-3.1-0.4
			c-0.3,0-0.6-0.1-0.9-0.1c-0.1,0-0.1,0-0.2,0c-0.3,0-0.6,0.2-0.5,0.6c0,0.1,0,0.1,0.1,0.2c0,0.1,0,0.1-0.1,0.1c-0.2,0-0.4,0-0.7,0
			c0,0-0.1,0-0.1-0.1c-0.1-0.1,0-0.1,0.1-0.1c0.4-0.4,0.9-0.8,1.3-1.2c0.1-0.1,0.1-0.1,0.2,0c0.1,0.2,0.3,0.2,0.5,0.2
			c0.1,0,0.2,0,0.2-0.1c0.6-0.1,1.2-0.2,1.8,0c0.4,0.1,0.7,0.1,1.1-0.1c0.5-0.2,0.9-0.3,1.4-0.4c0.1,0,0.2,0,0.4,0
			c0.2,0.1,0.4,0.2,0.7,0.2c0.5,0.1,0.9,0,1.3-0.1c0.3-0.1,0.5-0.1,0.8-0.2c0.1,0,0.2,0,0.3,0.1c0.3,0.2,0.7,0.5,1,0.7
			c0.5,0.3,1.1,0.4,1.7,0.3c0.8-0.2,1.5-0.4,2.2-0.7c1-0.4,2-0.8,3-1.1c0.3-0.1,0.7-0.2,1-0.4c1.2-0.5,2.4-0.9,3.7-1.3
			c1.1-0.4,2.3-0.8,3.4-1.2c1-0.4,2-0.7,3-1.1c1.8-0.6,3.6-1.2,5.3-1.9c0.2-0.1,0.3-0.1,0.5-0.2c0.1,0,0.2-0.1,0.3-0.2
			c0.1-0.2,0.2-0.2,0.3-0.3c2-1.5,3.6-3.2,5-5.3c1.1-1.7,2-3.5,2.7-5.4c0.7-1.8,1.2-3.8,1.5-5.7c0.2-1,0.3-2,0.3-3
			c0.1-1.4,0.1-2.8,0-4.2c0-0.9-0.1-1.9-0.2-2.8c-0.2-1.9-0.6-3.7-1.1-5.5c-0.9-3.4-2.2-6.6-4-9.6c-1.2-2.1-2.6-4.1-4.2-5.9
			c-2.7-3.1-5.7-5.7-9.3-7.6c-2.2-1.2-4.6-2-7-2.5c-0.4-0.1-0.8-0.1-1.2-0.2c-0.1,0-0.1,0-0.2,0c-0.4,0.1-0.9,0-1.4,0.1
			c-0.4,0.1-0.9,0.1-1.3,0.2c-1.9,0.3-3.8,0.7-5.7,1.1c-1.4,0.3-2.7,0.6-4.1,0.9c-1.6,0.3-3.2,0.7-4.7,1c-1.3,0.3-2.7,0.6-4,0.9
			c-1.5,0.3-3,0.7-4.5,1c-0.7,0.2-1.3,0.4-2,0.7c-0.3,0.1-0.6,0.3-0.8,0.6c-0.5,0.5-1,1-1.3,1.7c-0.1,0.1-0.2,0.2-0.3,0.2
			c-0.5,0.1-1,0.2-1.4,0.3c-1.4,0.4-2.6,1.2-3.5,2.3c-0.1,0.1-0.2,0.3-0.3,0.4c-0.1,0.3-0.3,0.4-0.6,0.5c-0.5,0.3-1.1,0.6-1.6,0.8
			c-0.1,0.1-0.2,0.1-0.3,0.2c-0.1,0-0.2,0.1-0.2,0.2c-0.2,0.2-0.4,0.3-0.7,0.4c-0.7,0.3-1.3,0.6-2,1c-0.6,0.4-1.3,0.7-1.9,1.2
			c-0.1,0.1-0.3,0.2-0.4,0.3c-1.4,1.3-2.7,2.7-3.8,4.3c-1,1.5-1.9,3.2-2.6,4.9c-0.8,2-1.4,4.2-1.7,6.3c-0.2,1.1-0.3,2.2-0.4,3.4
			c-0.1,1.5-0.1,3.1,0,4.6c0.1,1.3,0.2,2.6,0.4,3.9c0.5,3.3,1.4,6.4,2.7,9.5c0.2,0.4,0.4,0.8,0.5,1.2c0,0.1,0,0.1-0.1,0.2
			c-0.1,0-0.1,0.1-0.2,0.1c-0.4,0.1-0.8,0.4-1.2,0.6c-0.1,0.1-0.3,0.2-0.4,0.4c-0.1,0.3-0.4,0.4-0.7,0.6c-0.4,0.2-0.9,0.3-1.4,0.4
			c-0.8,0.1-1.7,0.1-2.5,0.1c-0.1,0-0.1,0-0.2,0c-1.1-0.1-2.2-0.1-3.3-0.2c-0.7,0-1.4,0-2.1,0c-0.1,0-0.3,0-0.4,0
			c-0.8,0-1.7,0.1-2.5,0.2c-0.7,0.1-1.5,0.1-2.2,0.2c-0.7,0.1-1.3,0.2-2,0.3c-1.1,0.2-2.3,0.4-3.4,0.6c-3.1,0.6-6,1.6-8.9,2.9
			c-1.3,0.6-2.5,1.4-3.7,2.2c-0.4,0.3-0.8,0.7-1.1,1.1c-0.7,0.9-1.4,1.8-1.9,2.8c-0.7,1.2-1.1,2.4-1.3,3.8c-0.1,1.1-0.1,2.2,0.2,3.3
			c0.2,0.8,0.4,1.6,0.7,2.4c0.6,1.7,1.5,3.2,2.8,4.5c1.3,1.3,2.7,2.4,4.2,3.4c2.1,1.5,4.4,2.7,6.8,3.8c3.9,1.8,7.9,3.1,12,4.1
			c3.2,0.8,6.5,1.4,9.8,1.8c1.2,0.2,2.5,0.3,3.7,0.4c1,0.1,2,0.1,3,0.2c0.9,0.1,1.9,0.1,2.8,0.1c1,0,2,0,3.1,0.1
			c1.5,0.1,3,0.2,4.5,0.2C569.5,120.6,570.3,120.6,571.1,120.7z M554,50.6C553.9,50.7,553.9,50.7,554,50.6c0,0.1,0,0.1,0,0.1
			C553.9,50.8,553.9,50.7,554,50.6C553.9,50.7,553.9,50.7,554,50.6c0-0.1,0-0.1,0.1-0.2c0-0.1,0-0.2,0.1-0.3
			c0.2-0.4,0.3-0.7,0.5-1.1c0.9-1.8,2-3.5,3.4-4.9c0.2-0.2,0.3-0.4,0.6-0.5c0.1,0,0.1-0.1,0.2-0.2c0.3-0.3,0.6-0.6,0.9-0.9
			c0.3-0.3,0.6-0.5,0.9-0.7c0.2-0.1,0.4-0.2,0.6-0.3c2.1-1.4,4.5-2.3,7-2.6c1.3-0.1,2.7-0.1,4,0.2c2.1,0.4,4.1,1.2,5.9,2.2
			c2.3,1.3,4.2,3,6,5c1.6,1.8,3,3.9,4.2,6.1c1.8,3.4,3,6.9,3.8,10.7c0,0.1,0,0.2,0,0.2c0,0.1,0,0.1-0.1,0.1c-0.3,0-0.6,0.1-0.8,0.1
			c-0.2,0-0.2,0.1-0.2,0.3c0,0.6,0.1,1.2,0.2,1.7c0,0.3,0.1,0.6,0.1,0.8c0.1,0.7,0.2,1.4,0.2,2.1c0,1,0,2,0,3.1c0,0.3,0,0.6,0,0.9
			c0,0.6-0.1,1.2-0.1,1.7c-0.1,0.8-0.1,1.6-0.3,2.4c-0.1,0.3-0.1,0.5-0.2,0.8c0,0.1-0.1,0.3-0.1,0.4c-0.3,1-0.7,2-1.1,3
			c-0.4,1-0.8,2-1.3,2.9c-0.7,1.2-1.4,2.4-2.2,3.6c-1.8,2.5-4.2,4.4-7.1,5.6c-0.3,0.1-0.6,0.2-1,0.4c-0.1,0-0.2,0-0.3,0.1
			c-0.1,0-0.2-0.1-0.2-0.2c0-0.1,0.1-0.1,0.2-0.1c0.1,0,0.2-0.1,0.3-0.1c1.2-0.5,2.4-1,3.5-1.7c1.9-1.3,3.4-2.9,4.7-4.8
			c1.4-2.1,2.4-4.4,3.1-6.8c0.4-1.6,0.8-3.2,1-4.8c0.3-2.1,0.3-4.2,0.2-6.3c-0.1-1.1-0.2-2.2-0.3-3.2c-0.2-1.3-0.5-2.6-0.8-3.9
			c-0.9-3.4-2.2-6.6-4.1-9.6c-1.6-2.5-3.5-4.8-5.8-6.7c-1.5-1.3-3.2-2.3-5-3.1c-1.8-0.8-3.7-1.2-5.7-1.3c-0.8,0-1.7,0-2.5,0.2
			c-1.6,0.3-3.2,0.8-4.7,1.7c-0.5,0.3-0.9,0.6-1.4,0.8c-0.4,0.3-0.8,0.5-1.1,0.9c-0.3,0.3-0.7,0.7-1,1c-0.5,0.6-1,1.1-1.5,1.7
			c-0.8,1-1.4,2.1-2,3.2c-0.1,0.1-0.1,0.3-0.2,0.4C554,50.5,554,50.6,554,50.6z M628.9,61.4c0,0.8-0.1,1.4-0.1,2
			c0,0.9-0.1,1.7-0.2,2.6c-0.1,1-0.3,2-0.5,3c-0.6,2.6-1.5,5-2.8,7.3c-1.5,2.7-3.5,5-6,6.8c-0.1,0.1-0.2,0.1-0.2,0.2
			c-0.1,0.1-0.2,0.2-0.3,0.2c-0.5,0.2-1,0.4-1.5,0.5c-1.2,0.4-2.5,0.9-3.7,1.3c-1.1,0.4-2.2,0.8-3.3,1.1c-1.2,0.4-2.4,0.9-3.6,1.3
			c-1,0.4-2,0.7-3,1.1c-0.5,0.2-1.1,0.4-1.6,0.6c-1,0.3-2,0.7-3,1.1c-0.6,0.3-1.2,0.5-1.8,0.6c-0.6,0.1-1.1,0.1-1.7-0.3
			c-0.2-0.2-0.5-0.3-0.7-0.5c-0.1,0-0.1-0.1-0.2-0.1c0-0.1-0.1-0.1-0.2-0.1c-0.1,0-0.1,0-0.2,0c-0.2,0-0.3,0-0.5,0.1
			c-0.2,0.1-0.5,0.1-0.7,0.2c-0.5,0.1-1,0.1-1.5-0.2c0,0-0.1,0-0.1-0.1c-0.1,0-0.2-0.1-0.2-0.1c-0.1,0-0.2,0-0.3,0
			c-0.6,0.2-1.1,0.4-1.7,0.5c-0.2,0.2-0.5,0.1-0.7,0c-0.4-0.1-0.7-0.2-1.1-0.1c-0.2,0-0.5,0.1-0.7,0.1c0,0-0.1,0-0.1,0c0,0,0,0,0,0
			c0,0,0,0,0,0c0,0,0,0,0,0c0.1-0.1,0.1-0.1,0.2-0.2c0.4-0.5,0.8-1,1.2-1.5c1.6-2.1,2.8-4.4,3.6-6.9c0.8-2.3,1.4-4.7,1.6-7.2
			c0.2-1.5,0.3-3.1,0.2-4.6c0-0.4,0-0.7,0-1.1c0-1.4-0.2-2.8-0.4-4.2c-0.3-2.1-0.8-4.2-1.4-6.3c-1.1-3.6-2.7-6.9-4.9-10
			c-1.6-2.2-3.4-4.2-5.5-5.9c-1.9-1.5-4-2.8-6.3-3.6c-1.3-0.5-2.7-0.8-4-0.9c-1.3-0.1-2.6-0.1-3.9,0.1c0,0-0.1,0-0.1,0c0,0,0,0,0,0
			c0,0,0,0,0,0c0.1-0.1,0.2-0.1,0.3-0.2c0.2-0.1,0.4-0.3,0.5-0.5c0.2-0.5,0.6-0.9,1-1.3c0.7-0.7,1.6-1.1,2.6-1.4
			c0.3-0.1,0.5-0.1,0.8-0.2c0.3,0,0.6-0.2,0.9,0c0.2,0.1,0.3-0.1,0.3-0.3c0,0,0-0.1,0-0.1c-0.1-0.2,0-0.3,0.1-0.5
			c0.3-0.5,0.6-0.9,1-1.3c0.2-0.2,0.4-0.4,0.7-0.5c0.6-0.3,1.2-0.5,1.9-0.7c1.1-0.3,2.1-0.5,3.2-0.7c1.2-0.3,2.4-0.5,3.5-0.8
			c1.4-0.3,2.8-0.6,4.2-0.9c2.9-0.6,5.7-1.2,8.6-1.8c1.1-0.2,2.3-0.4,3.4-0.6c0.6-0.1,1.1-0.2,1.7-0.3c0.3-0.1,0.5-0.1,0.8,0
			c0.1,0,0.1,0,0.2,0c1.4,0.2,2.8,0.5,4.2,1c2.2,0.7,4.2,1.7,6.1,3c3.1,2,5.7,4.5,7.9,7.4c2.1,2.8,3.9,5.8,5.2,9.1
			c1,2.4,1.7,4.9,2.2,7.5c0.3,1.4,0.5,2.7,0.6,4.1C628.8,59.5,628.9,60.6,628.9,61.4z M565.3,59.6l0-1.2c0-0.3,0-0.6,0-0.9
			c0.1-1.1,0.2-2.1,0.5-3.1c0.4-1.7,0.9-3.3,1.7-4.8c0.7-1.4,1.6-2.6,2.8-3.6c1.1-1,2.3-1.6,3.7-2c0.5-0.1,1-0.2,1.5-0.3
			c0.2,0,0.4-0.1,0.4-0.3c0-0.1,0-0.1,0.1-0.1c0.1,0.1,0.2,0.1,0.3,0.2c2.1,1.3,4,2.9,5.6,4.7c1.6,1.9,2.9,3.9,4,6.1
			c1,1.9,1.8,3.9,2.4,6c0.3,1.1,0.6,2.2,0.8,3.4c0,0.2,0,0.2-0.2,0.3c-0.4,0.1-0.9,0.2-1.3,0.4c-0.8,0.2-1.6,0.6-2.3,1.1
			c-0.9,0.6-1.5,1.4-1.9,2.4c-0.2,0.6-0.4,1.3-0.6,1.9c-0.1,0.2-0.1,0.4-0.2,0.6c-0.3,0.8-0.9,1.4-1.7,1.6c-0.5,0.2-1,0.3-1.5,0.4
			c-1.1,0.2-2.2,0.3-3.3,0.5c-1.2,0.1-2.3,0.3-3.4,0.5c-0.5,0.1-1.1,0.2-1.6,0.4c-0.1,0-0.1,0-0.2,0c-0.6-0.1-1.1-0.2-1.7-0.3
			c-0.2,0-0.4,0-0.5-0.1c-0.1-0.1-0.2-0.3-0.3-0.4c-1.6-3.1-2.6-6.4-3-9.9C565.4,61.9,565.3,60.8,565.3,59.6z M551.8,63.7
			c0-1.1,0-2.2,0.2-3.4c0.1-1.1,0.3-2.3,0.5-3.4c0.5-2.5,1.4-4.8,2.6-7.1c0.8-1.4,1.7-2.7,2.7-3.8c0.1-0.1,0.2-0.2,0.3-0.3
			c0.2-0.1,0.3-0.2,0.4-0.3c0.5-0.6,1-1.2,1.8-1.6c0.1,0,0.1-0.1,0.2-0.1c1.7-1.2,3.7-2,5.8-2.3c0.4-0.1,0.7-0.1,1.1-0.1
			c0,0,0.1,0,0.1,0c0,0,0,0-0.1,0.1c-0.1,0-0.1,0.1-0.2,0.1c-0.7,0.4-1.4,0.9-2.1,1.4c-1.1,0.9-2.1,1.9-3,3c-0.8,1-1.5,2.1-2.1,3.2
			c-0.7,1.4-1.2,2.8-1.5,4.3c-0.3,1.1-0.5,2.1-0.5,3.2c-0.1,1.2,0,2.5,0.1,3.7c0,0.1,0,0.1,0,0.2c0.1,0.2,0.2,0.3,0.3,0.3
			c0.2,0,0.3-0.2,0.3-0.4c0-0.2-0.1-0.4-0.1-0.7c0-0.7,0-1.4,0-2.1c0-0.8,0-1.5,0.2-2.3c0.2-1.1,0.5-2.2,0.8-3.3
			c0.5-1.6,1.2-3.1,2.2-4.5c1.1-1.6,2.5-3.1,4-4.3c0.7-0.6,1.5-1.1,2.4-1.5c0.2-0.1,0.5-0.2,0.7-0.4c0.1-0.1,0.2-0.1,0.4-0.1
			c0.3,0,0.6,0.1,0.9,0.1c1.2,0.2,2.4,0.5,3.5,0.9c0.5,0.2,1,0.5,1.5,0.7c0.1,0,0.2,0.1,0.2,0.1c0,0.1-0.1,0.1-0.2,0.1
			c0,0-0.1,0-0.1,0c-0.3,0-0.6,0.1-0.9,0.2c-1.3,0.3-2.5,0.9-3.6,1.7c-1.3,0.9-2.3,2.1-3.1,3.5c-0.8,1.3-1.4,2.7-1.8,4.2
			c-0.6,1.9-0.8,3.9-0.9,5.9c-0.1,1.5,0,3,0.2,4.5c0.2,1.3,0.4,2.6,0.7,3.9c0.7,2.6,1.7,5.1,3,7.4c0.3,0.6,0.7,1.1,1,1.7
			c0.1,0.1,0.1,0.2-0.1,0.2c-0.1,0.1-0.2,0.1-0.3,0.2c-0.1,0.1-0.2,0.1-0.3-0.1c-0.5-0.8-1-1.7-1.4-2.6c-0.2-0.5-0.1-0.5-0.7-0.4
			c-0.1,0-0.2,0-0.3,0c-1.7,0.4-3.2,1.1-4.5,2.3c0,0-0.1,0.1-0.1,0.1c0,0-0.1,0-0.1,0c-0.1-0.1-0.1-0.2-0.2-0.3
			c-0.4-1.1-0.8-2.2-1.2-3.2c-0.5-1.4-0.9-2.8-1.2-4.3c-0.2-0.8-0.3-1.7-0.4-2.5c0-0.2-0.1-0.3-0.1-0.5c0-0.1-0.1-0.1-0.2-0.1
			c0,0-0.1,0-0.1,0c0,0-0.1,0.1-0.1,0.1c0,0.1,0,0.1,0,0.2c0,0.7,0,1.4,0.1,2c0.2,1.3,0.6,2.6,1,3.9c0.6,2,1.3,3.9,2.1,5.8
			c0.3,0.8,0.7,1.6,1,2.3c0.1,0.2,0.2,0.4,0.2,0.6l-0.4,0.5c0,0,0,0,0,0c0,0-0.1,0-0.1,0c-0.1-0.1-0.1-0.2-0.2-0.3
			c-0.4-0.7-0.7-1.4-1-2.1c0-0.1-0.1-0.2-0.1-0.3c0,0,0,0-0.1,0c0,0,0,0-0.1,0.1c-0.1,0.1-0.1,0.3-0.2,0.4c-0.2,0.3-0.3,0.6-0.5,0.9
			c-0.3,0.4-0.7,0.6-1.1,0.7c-0.2,0.1-0.4,0.1-0.6,0.1c-0.9,0.1-1.8,0.1-2.7,0.1c-0.2,0-0.3-0.1-0.3-0.2c-0.2-0.4-0.4-0.8-0.6-1.3
			c-1-2.2-1.8-4.6-2.3-7c-0.2-1.1-0.5-2.2-0.6-3.3c-0.1-0.8-0.2-1.6-0.2-2.4C551.9,65.1,551.9,64.4,551.8,63.7z M577.7,116.3
			c-1.5,0-2.9,0-4.2-0.2c-1-0.1-2-0.4-3-0.7c-0.1,0-0.2-0.1-0.3-0.1c-0.1-0.1-0.1-0.2-0.1-0.3c0-0.1,0-0.1,0.1-0.1
			c0,0,0.1-0.1,0.2-0.1c0.1,0,0.2,0,0.2,0c1.1,0.2,2.3,0.5,3.4,0.6c0.7,0.1,1.3,0.1,2,0.1c1.3,0,2.6,0,4,0c1.1-0.1,2.1-0.1,3.2-0.2
			c1.2-0.1,2.3-0.3,3.5-0.4c1.6-0.2,3.3-0.5,4.9-0.9c3.2-0.7,6.4-1.6,9.5-2.8c1.7-0.6,3.3-1.4,4.9-2.2c0.2-0.1,0.4-0.2,0.7-0.4
			c0.1-0.1,0.3-0.1,0.4-0.1c0.2,0,0.4,0.2,0.3,0.4c0,0.1-0.1,0.2-0.2,0.3c-0.1,0.1-0.2,0.1-0.3,0.2c-0.9,0.6-1.9,1.1-2.9,1.5
			c-2,0.9-4.1,1.7-6.2,2.3c-2.4,0.8-4.9,1.4-7.3,1.8c-1,0.2-2,0.4-3,0.5c-0.8,0.1-1.5,0.2-2.3,0.3c-0.7,0.1-1.4,0.2-2.1,0.2
			c-1,0.1-1.9,0.2-2.9,0.2C579.1,116.3,578.3,116.3,577.7,116.3z M539.7,114.9c-0.1,0-0.2-0.1-0.3-0.1c-1.2-0.3-2.3-0.7-3.5-1.1
			c-3.5-1.3-7-3-10.3-4.8c-1.1-0.6-2.3-1.3-3.3-2c-0.2-0.1-0.3-0.2-0.5-0.3c-0.1,0-0.1-0.1-0.1-0.1c-0.1-0.1-0.1-0.3-0.1-0.5
			c0.1-0.1,0.3-0.2,0.5-0.1c0.1,0,0.2,0.1,0.3,0.2c0.7,0.5,1.4,0.9,2.1,1.4c2.7,1.6,5.5,3,8.4,4.2c1.7,0.8,3.5,1.4,5.2,2.1
			c0.5,0.2,1,0.4,1.5,0.6c0.1,0,0.2,0.1,0.3,0.2c0.1,0.1,0.1,0.2,0,0.3C539.9,114.8,539.8,114.8,539.7,114.9z M544,83.8
			c-0.4,0-0.9,0-1.4,0c-0.1,0-0.3,0-0.4,0c-0.1,0-0.1-0.2,0-0.2c0,0,0.1-0.1,0.2-0.1c0.2-0.1,0.5-0.1,0.7-0.1c1.3,0,2.7,0,4,0.1
			c0.4,0,0.8,0.1,1.3,0.1c0.5,0.1,0.9,0.1,1.4,0.2c0.4,0,0.8,0,1.2,0c0.8-0.1,1.6-0.3,2.3-0.7c0.4-0.2,0.8-0.5,1.2-0.7
			c0.3-0.2,0.6-0.4,0.9-0.5c0.1-0.1,0.2,0,0.3,0.1c0.1,0.1,0.1,0.2,0,0.3c-0.3,0.2-0.7,0.4-1,0.6c-0.9,0.6-1.8,1-2.9,1.3
			c-0.4,0.1-0.8,0.1-1.3,0.2c-0.5,0-0.9,0-1.4-0.1c-1-0.2-2-0.2-3-0.3C545.4,83.8,544.8,83.8,544,83.8z M577.5,91
			c-0.7,0-1.5-0.1-2.2-0.2c-0.5-0.1-0.9-0.2-1.4-0.3c-0.1,0-0.2-0.1-0.1-0.2c0-0.1,0-0.2,0.1-0.3c0.1-0.2,0.1-0.2,0.3-0.2
			c1,0.3,1.9,0.5,2.9,0.5c1.1,0.1,2.3,0,3.4-0.3c0.8-0.2,1.6-0.6,2.3-1c0.1-0.1,0.2-0.1,0.4-0.2c0,0,0.1,0,0.1,0c0,0,0,0.1,0,0.1
			c-0.4,0.3-0.7,0.7-1.1,1c-0.4,0.3-0.8,0.6-1.1,0.8c-0.1,0.1-0.2,0.1-0.3,0c0,0-0.1,0-0.2,0c-0.1,0-0.1,0-0.2,0
			C579.4,90.8,578.5,91,577.5,91z M577.8,94.9c0,0-0.1-0.1-0.1-0.1c0-0.1,0-0.1,0.1-0.2c0,0,0.1,0,0.1,0c0.1,0,0.1,0,0.2-0.1
			c1.5-0.4,2.8-1.1,4.1-1.9c1.3-0.8,2.5-1.9,3.6-3c0.3-0.3,0.2-0.4,0.8-0.2c0,0,0,0,0,0c0.1,0,0.1,0.1,0,0.2
			c-0.1,0.1-0.2,0.2-0.3,0.4c-0.5,0.5-1,1-1.6,1.5c-1.7,1.5-3.7,2.6-5.9,3.2C578.5,94.7,578.1,94.8,577.8,94.9z M573.5,110.5
			L573.5,110.5c-0.7,0-1.4,0-2.1-0.1c-0.6,0-1.3-0.1-1.9-0.1c-0.2,0-0.4-0.1-0.6-0.1c-0.2,0-0.3-0.2-0.2-0.3c0-0.1,0-0.1,0.1-0.2
			c0,0,0.1-0.1,0.2-0.1c0.2,0,0.3-0.1,0.5-0.1c0.4,0,0.8,0,1.2,0c0.9,0,1.8,0.1,2.7,0.1c0.6,0,1.2,0,1.8,0c0.1,0,0.2,0,0.3,0
			c0.1,0,0.1,0.1,0.2,0.1c0,0,0.1,0.1,0.1,0.2c0,0.1,0,0.1,0,0.2c0,0.1-0.1,0.1-0.1,0.2c-0.1,0.1-0.2,0.1-0.2,0.1
			c-0.2,0-0.4,0-0.7,0C574.3,110.6,573.9,110.6,573.5,110.5z M568.7,82.1c0,0,0.1,0.1,0.2,0.1c0,0,0,0.1,0,0.1c0,0,0,0.1-0.1,0.1
			c-0.1,0.1-0.2,0.2-0.4,0.2c-0.2,0.1-0.4,0.1-0.6,0.2c-1.1,0.3-2,1-2.7,1.9c-0.3,0.4-0.6,0.8-0.8,1.2c-0.3,0.5-0.6,1-1,1.6
			c-0.5,0.9-1.3,1.6-2.1,2.2c-0.1,0.1-0.2,0.2-0.4,0.2c-0.1,0-0.1,0-0.2,0c-0.1,0-0.1,0-0.2-0.1c0,0,0-0.1,0-0.2
			c0.1-0.1,0.2-0.2,0.3-0.3c1-0.7,1.8-1.6,2.4-2.7c0.1-0.2,0.2-0.4,0.3-0.5c0.3-0.4,0.6-0.9,0.9-1.3c0.8-1.2,1.9-2,3.2-2.4
			c0.3-0.1,0.6-0.2,0.8-0.3C568.5,82.1,568.6,82.1,568.7,82.1z M527.9,86.1L527.9,86.1c0.2,0,0.2,0,0.3,0.1c0,0,0,0.1,0,0.1
			c0,0,0,0.1-0.1,0.1c-0.1,0-0.1,0.1-0.2,0.1c-1,0.2-1.9,0.6-2.9,1c-2.2,0.9-4.2,2.1-5.7,3.9c0,0-0.1,0.1-0.1,0.1
			c-0.1,0.1-0.1,0.1-0.2,0c0,0,0,0,0,0s0,0,0-0.1c0,0,0,0,0-0.1c0,0,0,0,0-0.1c0.1-0.2,0.3-0.5,0.4-0.7c0.2-0.2,0.4-0.5,0.7-0.7
			c1.4-1.2,2.9-2.2,4.6-2.8c0.8-0.3,1.6-0.6,2.4-0.9c0.2-0.1,0.4-0.1,0.6-0.2C527.8,86.2,527.8,86.1,527.9,86.1z M554,92.9
			c0,0,0-0.1,0.1-0.2c0.2-0.1,0.3-0.2,0.5-0.3c0.9-0.5,1.8-0.9,2.6-1.5c0.1,0,0.1-0.1,0.2-0.1c0.1,0,0.2,0,0.2,0.1
			c0,0.1,0,0.1,0,0.2c0,0.1-0.1,0.1-0.1,0.2c-0.2,0.2-0.5,0.4-0.7,0.5c-0.7,0.4-1.5,0.8-2.3,1.2c-0.1,0-0.2,0.1-0.3,0.1
			C554.1,93.1,554,93.1,554,92.9z M558.9,81.6c-0.3,0-0.7,0.1-1.1,0.1c-0.3,0-0.6,0.1-0.8,0.1c-0.1,0-0.2,0-0.3-0.1
			c0-0.1-0.1-0.1-0.1-0.2c0,0,0-0.1,0-0.1c0.1,0,0.1-0.1,0.2-0.1c0.5-0.1,1-0.1,1.5-0.2c0.4,0,0.7,0,1.1,0c0.2,0,0.3,0.1,0.5,0.1
			c0,0,0.1,0,0.1,0.1c0,0,0.1,0.1,0.1,0.2c0,0,0,0.1,0,0.1c0,0,0,0-0.1,0.1c-0.1,0-0.2,0-0.2,0C559.5,81.7,559.3,81.7,558.9,81.6z
			 M578.9,75.6C578.9,75.6,578.9,75.6,578.9,75.6c0.1-0.1,0.1-0.1,0.1-0.1L578.9,75.6L578.9,75.6z"/>
		<path class="st2" d="M597.8,63.4c-0.3,0-0.6-0.1-0.9-0.1c-0.1,0-0.2,0.1-0.2,0.2c0,0.5,0.1,0.9,0.1,1.4c0,0.4,0.1,0.9,0.1,1.3
			c0.1,1.4,0.1,2.8,0.1,4.2c0,0.9-0.1,1.7-0.1,2.6c-0.1,1.3-0.3,2.7-0.6,4c-0.5,2.5-1.2,5-2.1,7.4c-0.5,1.5-1.2,2.9-2.1,4.3
			c-0.1,0.2-0.1,0.3,0,0.5c0,0,0,0,0,0c0.1,0.1,0.1,0.1,0.3,0.1c0.4-0.1,0.7-0.1,1.1-0.2c0.4-0.1,0.8,0,1.1,0.2
			c0.2,0.1,0.5,0.2,0.7,0.4c0.5,0.3,1,0.3,1.5,0.2c0.8-0.2,1.5-0.5,2.2-0.8c1.6-0.6,3.1-1.2,4.6-1.8c1.4-0.6,2.9-1,4.4-1.6
			c1.6-0.6,3.2-1.1,4.8-1.6c1-0.3,2-0.6,3-0.9c0.6-0.2,1.1-0.4,1.7-0.6c0.3-0.1,0.5-0.2,0.8-0.3c0.7-0.2,1.3-0.6,1.8-1.1
			c0.8-0.6,1.4-1.3,2-2.1c0.3-0.4,0.6-0.7,0.9-1.1c0.2-0.2,0.4-0.5,0.5-0.7c1-1.9,1.9-3.9,2.5-6c0.5-1.5,0.8-3,1.1-4.5
			c0.3-1.9,0.4-3.9,0.4-5.8c0-1.1-0.1-2.2-0.2-3.3c-0.2-2-0.6-4-1.2-5.9c-1.2-4.2-3.1-8.2-5.6-11.8c-1.5-2.1-3.2-4-5.1-5.8
			c-1.6-1.5-3.5-2.8-5.4-3.8c-0.7-0.4-1.4-0.8-2.2-1.1c-0.6-0.2-1.2-0.4-1.8-0.6c-0.2,0-0.4,0-0.6-0.1c-0.5-0.1-0.9-0.1-1.4,0.1
			c-0.2,0.1-0.5,0.1-0.7,0.1c-0.1,0-0.2,0-0.3,0c-2.4-0.2-4.6,0.6-6.4,2.2c-1.1,1-2,2.2-2.7,3.6c-0.7,1.4-1.2,2.9-1.6,4.4
			c-0.2,0.7-0.3,1.5-0.4,2.2c0,0.2,0,0.4,0.1,0.6c0.1,0.2,0.2,0.4,0.3,0.5c0,0,0.1,0,0.1,0c0,0,0-0.1,0-0.1c0.1-1,0.3-2,0.6-3
			c0.4-1.5,0.9-3,1.7-4.4c0.6-1,1.2-1.9,2.1-2.7c1-1,2.2-1.7,3.6-2.1c0.6-0.2,1.3-0.3,2-0.3c0,0,0.1,0,0.1,0c0,0,0,0.1,0,0.1
			c-0.1,0.1-0.1,0.1-0.2,0.2c-0.2,0.2-0.3,0.3-0.5,0.5c-0.2,0.3-0.4,0.5-0.6,0.9c-0.6,1.1-0.9,2.3-0.9,3.6c0,1.1,0.2,2.1,0.4,3.1
			c0.3,1.2,0.8,2.4,1.3,3.6c0.8,1.9,1.8,3.9,2.8,5.7c1.4,2.7,2.9,5.3,4.3,8c0.3,0.5,0.5,1,0.6,1.5c0,0.2,0.1,0.3,0.1,0.5
			c0,0.1,0,0.3-0.1,0.4c0,0.1-0.1,0.2-0.2,0.3c-0.1,0.1-0.2,0.2-0.4,0.3c-0.2,0.2-0.5,0.3-0.7,0.5c-1.7,1.2-3,2.6-3.9,4.5
			c-0.1,0.1-0.1,0.2-0.2,0.3c-0.2,0.4-0.1,0.4-0.7,0.4c-0.7-0.1-1.4-0.2-2.1-0.3c-0.8-0.1-1.5-0.1-2.3-0.2c-0.2,0-0.2,0-0.3-0.3
			c0-0.3-0.1-0.6-0.1-0.8c-0.2-1.5-0.5-3-0.9-4.5c-0.8-3.1-1.9-6.1-3.4-8.9c-1.8-3.4-4.1-6.5-6.9-9.1c-2.7-2.5-5.8-4.5-9.2-5.7
			c-0.6-0.2-1.2-0.4-1.7-0.6c-0.1,0-0.2,0-0.3,0c-0.1,0-0.2,0.1-0.2,0.2c0,0.1,0,0.2,0.1,0.3c0.1,0.1,0.2,0.1,0.3,0.2
			c0.5,0.2,1,0.3,1.6,0.5c2.5,0.9,4.8,2.2,7,3.9c2.8,2.2,5.2,4.8,7.2,7.8c2.1,3.3,3.7,6.8,4.8,10.5c0.5,1.7,0.9,3.4,1.1,5.2
			c0.1,0.4,0.1,0.7,0.2,1.1c0,0.2,0,0.2-0.2,0.2H597.8z M627.1,60.4L627.1,60.4c0,0.4,0,0.8,0,1.2c0,0,0,0.1,0,0.1
			c-0.1,0-0.1,0-0.2-0.1c-0.2-0.1-0.3-0.3-0.5-0.4c-0.1-0.1-0.2-0.2-0.3-0.1c-0.1,0,0,0.2,0,0.3c0,1.4-0.1,2.7-0.3,4
			c-0.1,0.7-0.2,1.5-0.2,2.2c0,0.5,0,0.9-0.1,1.4c-0.1,1.2-0.3,2.4-0.6,3.6c-0.1,0.5-0.4,1-0.7,1.4c0,0-0.1,0-0.1,0c0,0,0-0.1,0-0.1
			c-0.1-0.5-0.3-1-0.4-1.5c0-0.1,0-0.1-0.1-0.2c-0.1-0.2-0.2-0.3-0.2-0.5c-0.4-0.8-0.9-1.6-1.6-2.3c-1.1-1-2.4-1.3-3.9-1.1
			c-0.3,0.1-0.7,0.2-1,0.3c-0.3,0-0.5,0.2-0.7,0.3c-0.2,0.1-0.4,0.3-0.5,0.4c-1,0.7-1.8,1.5-2.4,2.5c-0.7,1-1.2,2.1-1.6,3.3
			c-0.4,1.1-0.7,2.2-1,3.3c-0.2,0.9-0.5,1.9-0.7,2.8c-0.1,0.4-0.3,0.9-0.5,1.3c-0.3,0.6-0.7,1-1.3,1.2c-0.3,0.1-0.6,0.2-0.9,0.3
			c-1.9,0.5-3.8,1-5.8,1.4c-0.3,0.1-0.6,0.1-0.9,0.2c-0.1,0-0.1,0-0.1-0.1c0,0,0-0.1,0-0.1c0.4-0.7,0.7-1.5,1-2.3
			c0.6-1.7,1.1-3.5,1.6-5.3c0.3-1.3,0.6-2.6,0.7-3.9c0-0.4,0-0.8,0.1-1.2c0-0.1,0-0.2,0-0.3c-0.1-0.5-0.1-0.9-0.2-1.3
			c-0.2-0.7-0.2-1.4-0.1-2.1c0-0.1,0-0.2,0-0.3c0-0.3,0.1-0.7,0.1-1c0-0.1,0-0.3,0.1-0.4c0.2-0.2,0.2-0.5,0.3-0.8
			c0.1-0.5,0.2-1.1,0.5-1.6c0.2-0.5,0.4-1,0.6-1.4c0.7-1.6,1.8-2.8,3.2-3.9c0.3-0.3,0.7-0.5,1-0.7c0.2-0.2,0.5-0.3,0.7-0.6
			c0.4-0.4,0.6-0.9,0.5-1.4c-0.1-0.3-0.1-0.6-0.3-0.9c-0.3-0.6-0.6-1.3-0.9-1.9c-1.1-2-2.1-3.9-3.2-5.9c-1.2-2.2-2.3-4.4-3.3-6.6
			c-0.5-1.1-0.9-2.2-1.3-3.4c-0.4-1.3-0.6-2.6-0.6-4c0-0.7,0.2-1.3,0.4-1.9c0.5-1.2,1.2-2.2,2.4-2.7c0.7-0.3,1.5-0.5,2.3-0.3
			c0.5,0.1,1,0.3,1.5,0.4c0.7,0.3,1.4,0.6,2.1,0.9c1.3,0.7,2.6,1.4,3.8,2.3c0.4,0.3,0.7,0.6,1.1,0.9c1.9,1.6,3.5,3.4,5,5.3
			c2.4,3.2,4.3,6.8,5.6,10.6c0.6,1.8,1.1,3.7,1.5,5.7c0.2,0.9,0.3,1.8,0.4,2.7C627,59,627.1,59.7,627.1,60.4z"/>
		<path class="st2" d="M596.1,69.4c0-0.8-0.1-1.8-0.2-2.9c-0.1-0.8-0.1-1.6-0.2-2.4c0-0.4-0.1-0.7-0.2-1.1c-0.1-0.8-0.3-1.6-0.4-2.4
			c-0.5-2.6-1.3-5.1-2.4-7.5c-1.1-2.6-2.5-5-4.1-7.3c-2.1-2.9-4.6-5.4-7.5-7.4c-1.6-1.1-3.3-2-5.1-2.8c-0.1-0.1-0.3-0.1-0.4-0.1
			c-0.1,0-0.3,0.1-0.3,0.2c0,0.1,0,0.1,0,0.2c0,0.1,0.1,0.1,0.1,0.1c0.1,0.1,0.2,0.1,0.3,0.2c1.4,0.5,2.7,1.2,3.9,2
			c1.4,0.9,2.7,1.9,3.9,3c2.7,2.4,4.9,5.3,6.7,8.5c1.9,3.3,3.2,6.9,4.1,10.6c0.2,0.8,0.3,1.6,0.5,2.4c0,0.1,0,0.1,0,0.2
			c0,0.3,0,0.3-0.3,0.3c-0.2,0-0.5,0-0.7,0c-0.2,0-0.2,0.1-0.2,0.2c0.1,0.6,0.2,1.2,0.3,1.8c0.1,0.8,0.2,1.5,0.3,2.3
			c0.1,1.3,0.1,2.7,0.1,4c0,1.1-0.1,2.3-0.2,3.4c-0.5,3.9-1.7,7.6-3.5,11.1c-0.5,1-1.1,2-1.7,3.1c0,0.1-0.1,0.1-0.1,0.2
			c-0.1,0.1-0.2,0.3-0.3,0.4c0.2,0.1,0.4,0.1,0.5,0.1c0.1,0,0.3,0,0.4,0c0.3,0,0.5-0.1,0.7-0.3c0.7-0.8,1.3-1.6,1.8-2.6
			c0.6-1.1,1.1-2.1,1.5-3.3c0.6-1.6,1.1-3.3,1.5-4.9c0.4-1.6,0.7-3.1,0.9-4.7c0.1-1,0.2-2,0.2-3C596,70.6,596,70.1,596.1,69.4z
			 M591.8,43.8c0,0.2,0.1,0.4,0.1,0.6c0,0.1,0.1,0.1,0.1,0.2c0.1,0.1,0.3,0.1,0.4,0c0.1-0.1,0.1-0.2,0.1-0.4c0-0.2,0-0.5-0.1-0.7
			c0-0.1-0.1-0.2-0.2-0.2c-0.2-0.1-0.4,0.1-0.4,0.2C591.8,43.5,591.8,43.6,591.8,43.8L591.8,43.8z M558.1,62.9
			c0,0.3,0.1,0.6,0.1,0.9c0,0.1,0,0.1,0.1,0.2c0.1,0.1,0.2,0.1,0.3,0.1c0.1,0,0.2-0.1,0.2-0.2c0-0.1,0-0.2,0-0.3
			c0-0.3,0-0.5-0.1-0.8c0-0.1-0.1-0.2-0.1-0.4c0-0.1-0.1-0.2-0.3-0.2c-0.1,0-0.2,0.1-0.2,0.2c0,0,0,0.1,0,0.1
			C558.1,62.7,558.1,62.8,558.1,62.9z M125.1,120.7c-1.5,0-3-0.1-4.5-0.1c-1.1,0-2.2-0.1-3.2-0.2c-1-0.1-2.1-0.2-3.1-0.3
			c-2-0.2-4-0.5-5.9-0.8c-3.8-0.6-7.5-1.5-11.2-2.8c-1.9-0.7-3.8-1.4-5.6-2.4c-1.3-0.7-2.6-1.4-3.7-2.4c-1-0.8-2-1.7-2.7-2.8
			c-0.5-0.7-0.9-1.5-1.1-2.3c-0.4-1.2-0.3-2.5,0.2-3.7c0.4-1,0.9-1.8,1.6-2.6c0.6-0.7,1.4-1.3,2.1-1.9c1.5-1.1,3-1.9,4.7-2.6
			c1-0.4,2-0.8,3-1.2c0.3-0.1,0.6-0.2,0.9-0.3c1.1-0.4,2.2-0.7,3.3-0.9c1-0.2,1.9-0.4,2.9-0.6c1.2-0.2,2.3-0.4,3.5-0.6
			c1-0.2,2-0.3,3.1-0.4c0.3,0,0.6-0.1,0.9-0.1c0.1,0,0.1,0,0.2,0c0.3,0,0.6,0.2,0.5,0.6c0,0.1,0,0.1-0.1,0.2c0,0.1,0,0.1,0.1,0.1
			c0.2,0,0.4,0,0.7,0c0,0,0.1,0,0.1-0.1c0.1-0.1,0-0.1-0.1-0.1c-0.4-0.4-0.9-0.8-1.3-1.2c-0.1-0.1-0.1-0.1-0.2,0
			c-0.1,0.2-0.3,0.2-0.5,0.2c-0.1,0-0.2,0-0.2-0.1c-0.6-0.1-1.2-0.2-1.8,0c-0.4,0.1-0.7,0.1-1.1-0.1c-0.5-0.2-0.9-0.3-1.4-0.4
			c-0.1,0-0.2,0-0.4,0c-0.2,0.1-0.4,0.2-0.7,0.2c-0.5,0.1-0.9,0-1.3-0.1c-0.3-0.1-0.5-0.1-0.8-0.2c-0.1,0-0.2,0-0.3,0.1
			c-0.3,0.2-0.7,0.5-1,0.7c-0.5,0.3-1.1,0.4-1.7,0.3c-0.8-0.2-1.5-0.4-2.2-0.7c-1-0.4-2-0.8-3-1.1c-0.3-0.1-0.7-0.2-1-0.4
			c-1.2-0.5-2.4-0.9-3.7-1.3c-1.1-0.4-2.3-0.8-3.4-1.2c-1-0.4-2-0.7-3-1.1c-1.8-0.6-3.6-1.2-5.3-1.9c-0.2-0.1-0.3-0.1-0.5-0.2
			c-0.1,0-0.2-0.1-0.3-0.2c-0.1-0.2-0.2-0.2-0.3-0.3c-2-1.5-3.6-3.2-5-5.3c-1.1-1.7-2-3.5-2.7-5.4C68,70.9,67.5,69,67.1,67
			c-0.2-1-0.3-2-0.3-3c-0.1-1.4-0.1-2.8,0-4.2c0-0.9,0.1-1.9,0.2-2.8c0.2-1.9,0.6-3.7,1.1-5.5c0.9-3.4,2.2-6.6,4-9.6
			c1.2-2.1,2.6-4.1,4.2-5.9c2.7-3.1,5.7-5.7,9.3-7.6c2.2-1.2,4.6-2,7-2.5c0.4-0.1,0.8-0.1,1.2-0.2c0.1,0,0.1,0,0.2,0
			c0.4,0.1,0.9,0,1.4,0.1c0.4,0.1,0.9,0.1,1.3,0.2c1.9,0.3,3.8,0.7,5.7,1.1c1.4,0.3,2.7,0.6,4.1,0.9c1.6,0.3,3.2,0.7,4.7,1
			c1.3,0.3,2.7,0.6,4,0.9c1.5,0.3,3,0.7,4.5,1c0.7,0.2,1.3,0.4,2,0.7c0.3,0.1,0.6,0.3,0.8,0.6c0.5,0.5,1,1,1.3,1.7
			c0.1,0.1,0.2,0.2,0.3,0.2c0.5,0.1,1,0.2,1.4,0.3c1.4,0.4,2.6,1.2,3.5,2.3c0.1,0.1,0.2,0.3,0.3,0.4c0.1,0.3,0.3,0.4,0.6,0.5
			c0.5,0.3,1.1,0.6,1.6,0.8c0.1,0.1,0.2,0.1,0.3,0.2c0.1,0,0.2,0.1,0.2,0.2c0.2,0.2,0.4,0.3,0.7,0.4c0.7,0.3,1.3,0.6,2,1
			c0.6,0.4,1.3,0.7,1.9,1.2c0.1,0.1,0.3,0.2,0.4,0.3c1.4,1.3,2.7,2.7,3.8,4.3c1,1.5,1.9,3.2,2.6,4.9c0.8,2,1.4,4.2,1.7,6.3
			c0.2,1.1,0.3,2.2,0.4,3.4c0.1,1.5,0.1,3.1,0,4.6c-0.1,1.3-0.2,2.6-0.4,3.9c-0.5,3.3-1.4,6.4-2.7,9.5c-0.2,0.4-0.4,0.8-0.5,1.2
			c0,0.1,0,0.1,0.1,0.2c0.1,0,0.1,0.1,0.2,0.1c0.4,0.1,0.8,0.4,1.2,0.6c0.1,0.1,0.3,0.2,0.4,0.4c0.1,0.3,0.4,0.4,0.7,0.6
			c0.4,0.2,0.9,0.3,1.4,0.4c0.8,0.1,1.7,0.1,2.5,0.1c0.1,0,0.1,0,0.2,0c1.1-0.1,2.2-0.1,3.3-0.2c0.7,0,1.4,0,2.1,0
			c0.1,0,0.3,0,0.4,0c0.8,0,1.7,0.1,2.5,0.2c0.7,0.1,1.5,0.1,2.2,0.2c0.7,0.1,1.3,0.2,2,0.3c1.1,0.2,2.3,0.4,3.4,0.6
			c3.1,0.6,6,1.6,8.9,2.9c1.3,0.6,2.5,1.4,3.7,2.2c0.4,0.3,0.8,0.7,1.1,1.1c0.7,0.9,1.4,1.8,1.9,2.8c0.7,1.2,1.1,2.4,1.3,3.8
			c0.1,1.1,0.1,2.2-0.2,3.3c-0.2,0.8-0.4,1.6-0.7,2.4c-0.6,1.7-1.5,3.2-2.8,4.5c-1.3,1.3-2.7,2.4-4.2,3.4c-2.1,1.5-4.4,2.7-6.8,3.8
			c-3.9,1.8-7.9,3.1-12,4.1c-3.2,0.8-6.5,1.4-9.8,1.8c-1.2,0.2-2.5,0.3-3.7,0.4c-1,0.1-2,0.1-3,0.2c-0.9,0.1-1.9,0.1-2.8,0.1
			c-1,0-2,0-3.1,0.1c-1.5,0.1-3,0.2-4.5,0.2C126.7,120.6,125.9,120.6,125.1,120.7z M142.3,50.6L142.3,50.6c0,0.1,0,0.1,0,0.1
			C142.3,50.8,142.4,50.7,142.3,50.6C142.3,50.7,142.3,50.7,142.3,50.6c0-0.1,0-0.1-0.1-0.2c0-0.1,0-0.2-0.1-0.3
			c-0.2-0.4-0.3-0.7-0.5-1.1c-0.9-1.8-2-3.5-3.4-4.9c-0.2-0.2-0.3-0.4-0.6-0.5c-0.1,0-0.1-0.1-0.2-0.2c-0.3-0.3-0.6-0.6-0.9-0.9
			c-0.3-0.3-0.6-0.5-0.9-0.7c-0.2-0.1-0.4-0.2-0.6-0.3c-2.1-1.5-4.5-2.3-7.1-2.6c-1.3-0.1-2.7-0.1-4,0.2c-2.1,0.4-4.1,1.2-5.9,2.2
			c-2.3,1.3-4.2,3-6,5c-1.6,1.8-3,3.9-4.2,6.1c-1.8,3.4-3,6.9-3.8,10.7c0,0.1,0,0.2,0,0.2c0,0.1,0,0.1,0.1,0.1
			c0.3,0,0.6,0.1,0.8,0.1c0.2,0,0.2,0.1,0.2,0.3c0,0.6-0.1,1.2-0.2,1.7c0,0.3-0.1,0.6-0.1,0.8c-0.1,0.7-0.2,1.4-0.2,2.1
			c0,1,0,2,0,3.1c0,0.3,0,0.6,0,0.9c0,0.6,0.1,1.2,0.1,1.7c0.1,0.8,0.1,1.6,0.3,2.4c0.1,0.3,0.1,0.5,0.2,0.8c0,0.1,0.1,0.3,0.1,0.4
			c0.3,1,0.7,2,1.1,3c0.4,1,0.8,2,1.3,2.9c0.7,1.2,1.4,2.4,2.2,3.6c1.8,2.5,4.2,4.4,7.1,5.6c0.3,0.1,0.6,0.2,1,0.4
			c0.1,0,0.2,0,0.3,0.1c0.1,0,0.2-0.1,0.2-0.2c0-0.1-0.1-0.1-0.2-0.1c-0.1,0-0.2-0.1-0.3-0.1c-1.2-0.5-2.4-1-3.5-1.7
			c-1.9-1.3-3.4-2.9-4.7-4.8c-1.4-2.1-2.4-4.4-3.1-6.8c-0.4-1.6-0.8-3.2-1-4.8c-0.3-2.1-0.3-4.2-0.2-6.3c0.1-2.4,0.5-4.8,1.1-7.2
			c0.9-3.4,2.2-6.6,4.1-9.6c1.6-2.5,3.5-4.8,5.8-6.7c1.5-1.3,3.2-2.3,5-3.1c1.8-0.8,3.7-1.2,5.7-1.3c0.8,0,1.7,0,2.5,0.2
			c1.7,0.3,3.2,0.8,4.7,1.7c0.5,0.3,0.9,0.6,1.4,0.8c0.4,0.3,0.8,0.5,1.1,0.9c0.3,0.3,0.7,0.7,1,1c0.5,0.6,1,1.1,1.5,1.7
			c0.8,1,1.4,2.1,2,3.2c0.1,0.1,0.1,0.3,0.2,0.4C142.2,50.5,142.2,50.6,142.3,50.6z M67.3,61.4c0,0.8,0.1,1.4,0.1,2
			c0,0.9,0.1,1.7,0.2,2.6c0.1,1,0.3,2,0.5,3c0.6,2.6,1.5,5,2.8,7.3c1.5,2.7,3.5,5,6,6.8c0.1,0.1,0.2,0.1,0.2,0.2
			c0.1,0.1,0.2,0.2,0.3,0.2c0.5,0.2,1,0.4,1.5,0.5c1.2,0.4,2.5,0.9,3.7,1.3c1.1,0.4,2.2,0.8,3.3,1.1c1.2,0.4,2.4,0.9,3.6,1.3
			c1,0.4,2,0.7,3,1.1c0.5,0.2,1.1,0.4,1.6,0.6c1,0.3,2,0.7,3,1.1c0.6,0.3,1.2,0.5,1.8,0.6c0.6,0.1,1.1,0.1,1.7-0.3
			c0.2-0.2,0.5-0.3,0.7-0.5c0.1,0,0.1-0.1,0.2-0.1c0-0.1,0.1-0.1,0.2-0.1c0.1,0,0.1,0,0.2,0c0.2,0,0.3,0,0.5,0.1
			c0.2,0.1,0.5,0.1,0.7,0.2c0.5,0.1,1,0.1,1.5-0.2c0,0,0.1,0,0.1-0.1c0.1,0,0.2-0.1,0.2-0.1c0.1,0,0.2,0,0.3,0
			c0.6,0.2,1.1,0.4,1.7,0.5c0.2,0.2,0.5,0.1,0.7,0c0.4-0.1,0.7-0.2,1.1-0.1c0.2,0,0.5,0.1,0.7,0.1c0,0,0.1,0,0.1,0c0,0,0,0,0,0
			c0,0,0,0,0,0c-0.1-0.1-0.1-0.1-0.2-0.2c-0.4-0.5-0.8-1-1.2-1.5c-1.6-2.1-2.8-4.4-3.6-6.9c-0.8-2.3-1.4-4.7-1.6-7.2
			c-0.2-1.5-0.3-3.1-0.2-4.6c0-0.4,0-0.7,0-1.1c0-1.4,0.2-2.8,0.4-4.2c0.3-2.1,0.8-4.2,1.4-6.3c1.1-3.6,2.7-6.9,4.9-10
			c1.6-2.2,3.4-4.2,5.5-5.9c1.9-1.5,4-2.8,6.3-3.6c1.3-0.5,2.7-0.8,4-0.9c1.3-0.1,2.6-0.1,3.9,0.1c0,0,0.1,0,0.1,0c0,0,0,0,0,0
			c0,0,0,0,0,0c-0.1-0.1-0.2-0.1-0.3-0.2c-0.2-0.1-0.4-0.3-0.5-0.5c-0.2-0.5-0.6-0.9-1-1.3c-0.7-0.7-1.6-1.1-2.6-1.4
			c-0.3-0.1-0.5-0.1-0.8-0.2c-0.3,0-0.6-0.2-0.9,0c-0.2,0.1-0.3-0.1-0.3-0.3c0,0,0-0.1,0-0.1c0.1-0.2,0-0.3-0.1-0.5
			c-0.3-0.5-0.6-0.9-1-1.3c-0.2-0.2-0.4-0.4-0.7-0.5c-0.6-0.3-1.3-0.5-1.9-0.7c-1.1-0.3-2.1-0.5-3.2-0.7c-1.2-0.3-2.4-0.5-3.5-0.8
			c-1.4-0.3-2.8-0.6-4.2-0.9c-2.9-0.6-5.7-1.2-8.6-1.8c-1.1-0.2-2.3-0.4-3.4-0.6c-0.6-0.1-1.1-0.2-1.7-0.3c-0.3-0.1-0.5-0.1-0.8,0
			c-0.1,0-0.1,0-0.2,0c-1.4,0.2-2.8,0.5-4.2,1c-2.2,0.7-4.2,1.7-6.1,3c-3.1,2-5.7,4.5-7.9,7.4c-2.1,2.8-3.9,5.8-5.2,9.1
			c-1,2.4-1.7,4.9-2.2,7.5c-0.3,1.4-0.5,2.7-0.6,4.1C67.4,59.5,67.4,60.6,67.3,61.4z M130.9,59.6l0-1.2c0-0.3,0-0.6,0-0.9
			c-0.1-1.1-0.2-2.1-0.5-3.1c-0.4-1.7-0.9-3.3-1.7-4.8c-0.7-1.4-1.6-2.6-2.8-3.6c-1.1-1-2.3-1.6-3.7-2c-0.5-0.1-1-0.2-1.5-0.3
			c-0.2,0-0.4-0.1-0.4-0.3c0-0.1,0-0.1-0.1-0.1c-0.1,0.1-0.2,0.1-0.3,0.2c-2.1,1.3-4,2.9-5.6,4.7c-1.6,1.9-2.9,3.9-4,6.1
			c-1,1.9-1.8,3.9-2.4,6c-0.3,1.1-0.6,2.2-0.8,3.4c0,0.2,0,0.2,0.2,0.3c0.4,0.1,0.9,0.2,1.3,0.4c0.8,0.2,1.6,0.6,2.3,1.1
			c0.9,0.6,1.5,1.4,1.9,2.4c0.2,0.6,0.4,1.3,0.6,1.9c0.1,0.2,0.1,0.4,0.2,0.6c0.3,0.8,0.9,1.4,1.7,1.6c0.5,0.2,1,0.3,1.5,0.4
			c1.1,0.2,2.2,0.3,3.3,0.5c1.2,0.1,2.3,0.3,3.4,0.5c0.5,0.1,1.1,0.2,1.6,0.4c0.1,0,0.1,0,0.2,0c0.6-0.1,1.1-0.2,1.7-0.3
			c0.2,0,0.4,0,0.5-0.1c0.1-0.1,0.2-0.3,0.3-0.4c1.6-3.1,2.6-6.4,3-9.9C130.9,61.9,130.9,60.8,130.9,59.6z M144.4,63.7
			c0-1.1,0-2.2-0.2-3.4c-0.1-1.1-0.3-2.3-0.5-3.4c-0.5-2.5-1.4-4.8-2.6-7.1c-0.8-1.4-1.7-2.7-2.7-3.8c-0.1-0.1-0.2-0.2-0.3-0.3
			c-0.1-0.1-0.3-0.2-0.4-0.3c-0.5-0.6-1.1-1.2-1.8-1.6c-0.1,0-0.1-0.1-0.2-0.1c-1.7-1.2-3.7-2-5.9-2.3c-0.4-0.1-0.7-0.1-1.1-0.1
			c0,0-0.1,0-0.1,0c0,0,0,0,0.1,0.1c0.1,0,0.1,0.1,0.2,0.1c0.7,0.4,1.4,0.9,2.1,1.4c1.1,0.9,2.1,1.9,3,3c0.8,1,1.5,2.1,2.1,3.2
			c0.7,1.4,1.2,2.8,1.5,4.3c0.3,1.1,0.5,2.1,0.5,3.2c0.1,1.2,0,2.5-0.1,3.7c0,0.1,0,0.1,0,0.2c-0.1,0.2-0.2,0.3-0.3,0.3
			c-0.2,0-0.3-0.2-0.3-0.4c0-0.2,0.1-0.4,0.1-0.7c0-0.7,0-1.4,0-2.1c0-0.8,0-1.5-0.2-2.3c-0.2-1.1-0.5-2.3-0.8-3.3
			c-0.5-1.6-1.2-3.1-2.2-4.5c-1.1-1.6-2.5-3.1-4-4.3c-0.7-0.6-1.5-1.1-2.4-1.5c-0.2-0.1-0.5-0.2-0.7-0.4c-0.1-0.1-0.2-0.1-0.4-0.1
			c-0.3,0-0.6,0.1-0.9,0.1c-1.2,0.2-2.4,0.5-3.5,0.9c-0.5,0.2-1,0.5-1.5,0.7c-0.1,0-0.2,0.1-0.2,0.1c0,0.1,0.1,0.1,0.2,0.1
			c0,0,0.1,0,0.1,0c0.3,0,0.6,0.1,0.9,0.2c1.3,0.3,2.5,0.9,3.6,1.7c1.3,0.9,2.3,2.1,3.1,3.5c0.8,1.3,1.4,2.7,1.8,4.2
			c0.6,1.9,0.8,3.9,0.9,5.9c0.1,1.5,0,3-0.2,4.5c-0.2,1.3-0.4,2.6-0.7,3.9c-0.7,2.6-1.7,5.1-3,7.4c-0.3,0.6-0.7,1.1-1,1.7
			c-0.1,0.1-0.1,0.2,0.1,0.2c0.1,0.1,0.2,0.1,0.3,0.2c0.1,0.1,0.2,0.1,0.3-0.1c0.5-0.8,1-1.7,1.4-2.6c0.2-0.5,0.1-0.5,0.7-0.4
			c0.1,0,0.2,0,0.3,0c1.7,0.4,3.2,1.1,4.5,2.3c0,0,0.1,0.1,0.1,0.1c0,0,0.1,0,0.1,0c0.1-0.1,0.1-0.2,0.2-0.3
			c0.4-1.1,0.8-2.2,1.2-3.2c0.5-1.4,0.9-2.8,1.2-4.3c0.2-0.8,0.3-1.7,0.4-2.5c0-0.2,0.1-0.3,0.1-0.5c0-0.1,0.1-0.1,0.2-0.1
			c0,0,0.1,0,0.1,0c0,0,0.1,0.1,0.1,0.1c0,0.1,0,0.1,0,0.2c0,0.7,0,1.4-0.2,2c-0.2,1.3-0.6,2.6-1,3.9c-0.6,2-1.3,3.9-2.1,5.8
			c-0.3,0.8-0.7,1.6-1,2.3c-0.1,0.2-0.2,0.4-0.2,0.6l0.4,0.5c0,0,0,0,0,0c0,0,0.1,0,0.1,0c0.1-0.1,0.1-0.2,0.2-0.3
			c0.4-0.7,0.7-1.4,1-2.1c0-0.1,0.1-0.2,0.1-0.3c0,0,0,0,0.1,0c0,0,0,0,0.1,0.1c0.1,0.1,0.1,0.3,0.2,0.4c0.2,0.3,0.3,0.6,0.5,0.9
			c0.3,0.4,0.7,0.6,1.1,0.7c0.2,0.1,0.4,0.1,0.6,0.1c0.9,0.1,1.8,0.1,2.7,0.1c0.2,0,0.3-0.1,0.3-0.2c0.2-0.4,0.4-0.8,0.6-1.3
			c1-2.2,1.8-4.6,2.3-7c0.2-1.1,0.5-2.2,0.6-3.3c0.1-0.8,0.2-1.6,0.2-2.4C144.4,65.1,144.4,64.4,144.4,63.7z M118.6,116.3
			c1.5,0,2.9,0,4.2-0.2c1-0.1,2-0.4,3-0.7c0.1,0,0.2-0.1,0.3-0.1c0.1-0.1,0.1-0.2,0.1-0.3c0-0.1,0-0.1-0.1-0.1c0,0-0.1-0.1-0.1-0.1
			c-0.1,0-0.2,0-0.2,0c-1.1,0.2-2.3,0.5-3.4,0.6c-0.7,0.1-1.3,0.1-2,0.1c-1.3,0-2.6,0-4-0.1c-1.1-0.1-2.1-0.1-3.2-0.2
			c-1.2-0.1-2.3-0.3-3.5-0.4c-1.6-0.2-3.3-0.5-4.9-0.9c-3.2-0.7-6.4-1.6-9.5-2.8c-1.7-0.6-3.3-1.4-4.9-2.2c-0.2-0.1-0.4-0.2-0.7-0.4
			c-0.1-0.1-0.3-0.1-0.4-0.1c-0.2,0-0.4,0.2-0.3,0.4c0,0.1,0.1,0.2,0.2,0.3c0.1,0.1,0.2,0.1,0.3,0.2c0.9,0.6,1.9,1.1,2.9,1.5
			c2,0.9,4.1,1.7,6.2,2.3c2.4,0.8,4.9,1.4,7.3,1.8c1,0.2,2,0.4,3,0.5c0.8,0.1,1.5,0.2,2.3,0.3c0.7,0.1,1.4,0.2,2.1,0.2
			c1,0.1,1.9,0.2,2.9,0.2C117.1,116.3,117.9,116.3,118.6,116.3z M156.5,114.9c0.1,0,0.2-0.1,0.3-0.1c1.2-0.3,2.3-0.7,3.5-1.1
			c3.5-1.3,7-3,10.3-4.8c1.1-0.6,2.3-1.3,3.3-2c0.2-0.1,0.3-0.2,0.5-0.3c0,0,0.1-0.1,0.1-0.1c0.1-0.1,0.1-0.3,0.1-0.5
			c-0.1-0.1-0.3-0.2-0.5-0.1c-0.1,0.1-0.2,0.1-0.3,0.2c-0.7,0.5-1.4,0.9-2.1,1.4c-2.7,1.6-5.5,3-8.4,4.2c-1.7,0.8-3.5,1.4-5.2,2.1
			c-0.5,0.2-1,0.4-1.5,0.6c-0.1,0-0.2,0.1-0.3,0.2c-0.1,0.1-0.1,0.2,0,0.3C156.4,114.8,156.5,114.8,156.5,114.9z M152.2,83.8
			c0.4,0,0.9,0,1.4,0c0.1,0,0.3,0,0.4,0c0.1,0,0.1-0.2,0-0.2c0,0-0.1-0.1-0.2-0.1c-0.2-0.1-0.5-0.1-0.7-0.1c-1.3,0-2.7,0-4,0.1
			c-0.4,0-0.8,0.1-1.3,0.1c-0.4,0.1-0.9,0.1-1.3,0.2c-0.4,0-0.8,0-1.2,0c-0.8-0.1-1.6-0.3-2.3-0.7c-0.4-0.2-0.8-0.5-1.2-0.7
			c-0.3-0.2-0.6-0.4-0.9-0.5c-0.1-0.1-0.2,0-0.3,0.1c-0.1,0.1-0.1,0.2,0,0.3c0.3,0.2,0.7,0.4,1,0.6c0.9,0.6,1.8,1,2.9,1.3
			c0.4,0.1,0.8,0.1,1.3,0.2c0.5,0,0.9-0.1,1.4-0.1c1-0.2,2-0.2,3-0.3C150.9,83.8,151.5,83.8,152.2,83.8z M118.8,91
			c0.7,0,1.5-0.1,2.2-0.2c0.5-0.1,0.9-0.2,1.4-0.3c0.1,0,0.2-0.1,0.1-0.2c0-0.1,0-0.2-0.1-0.3c-0.1-0.2-0.1-0.2-0.3-0.2
			c-1,0.3-1.9,0.5-2.9,0.5c-1.1,0.1-2.3,0-3.4-0.3c-0.8-0.2-1.6-0.6-2.3-1c-0.1-0.1-0.2-0.1-0.4-0.2c0,0-0.1,0-0.1,0
			c0,0,0,0.1,0,0.1c0.4,0.3,0.7,0.7,1.1,1c0.4,0.3,0.8,0.6,1.1,0.8c0.1,0.1,0.2,0.1,0.3,0c0,0,0.1,0,0.2,0c0.1,0,0.1,0,0.2,0
			C116.9,90.8,117.8,91,118.8,91z M118.5,94.9c0,0,0.1-0.1,0.1-0.1c0-0.1,0-0.1-0.1-0.2c0,0-0.1,0-0.1,0c-0.1,0-0.1,0-0.2-0.1
			c-1.5-0.4-2.8-1.1-4.1-1.9c-1.3-0.8-2.5-1.9-3.6-3c-0.3-0.3-0.2-0.4-0.8-0.2c0,0,0,0,0,0c-0.1,0-0.1,0.1,0,0.2
			c0.1,0.1,0.2,0.2,0.3,0.4c0.5,0.5,1,1,1.6,1.5c1.7,1.5,3.7,2.6,5.9,3.2C117.8,94.7,118.1,94.8,118.5,94.9z M122.7,110.5
			L122.7,110.5c0.7,0,1.4,0,2.1-0.1c0.6,0,1.3-0.1,1.9-0.1c0.2,0,0.4-0.1,0.6-0.1c0.2,0,0.3-0.2,0.2-0.3c0-0.1,0-0.1-0.1-0.2
			c0,0-0.1-0.1-0.2-0.1c-0.2,0-0.3-0.1-0.5-0.1c-0.4,0-0.8,0-1.2,0c-0.9,0-1.8,0.1-2.7,0.1c-0.6,0-1.2,0-1.8,0c-0.1,0-0.2,0-0.3,0
			c-0.1,0-0.1,0.1-0.2,0.1c0,0-0.1,0.1-0.1,0.2c0,0.1,0,0.1,0,0.2c0,0.1,0.1,0.1,0.1,0.2c0.1,0.1,0.2,0.1,0.2,0.1c0.2,0,0.4,0,0.7,0
			C121.9,110.6,122.3,110.6,122.7,110.5z M127.6,82.1c0,0-0.1,0.1-0.2,0.1c0,0,0,0.1,0,0.1c0,0,0,0.1,0.1,0.1
			c0.1,0.1,0.2,0.2,0.4,0.2c0.2,0.1,0.4,0.1,0.6,0.2c1.1,0.3,2,1,2.7,1.9c0.3,0.4,0.6,0.8,0.8,1.2c0.3,0.5,0.6,1,1,1.6
			c0.5,0.9,1.3,1.6,2.1,2.2c0.1,0.1,0.2,0.2,0.4,0.2c0.1,0,0.1,0,0.2,0c0.1,0,0.1,0,0.1-0.1c0,0,0-0.1,0-0.2
			c-0.1-0.1-0.2-0.2-0.3-0.3c-1-0.7-1.8-1.6-2.4-2.7c-0.1-0.2-0.2-0.4-0.3-0.5c-0.3-0.4-0.6-0.9-0.9-1.3c-0.8-1.2-1.9-2-3.2-2.4
			c-0.3-0.1-0.6-0.2-0.8-0.3C127.7,82.1,127.7,82.1,127.6,82.1z M168.4,86.1L168.4,86.1c-0.2,0-0.2,0.1-0.3,0.1c0,0,0,0.1,0,0.1
			s0,0.1,0.1,0.1c0.1,0,0.1,0.1,0.2,0.1c1,0.2,1.9,0.6,2.9,1c2.2,0.9,4.2,2.1,5.7,3.9c0,0,0.1,0.1,0.1,0.1c0.1,0.1,0.1,0.1,0.2,0
			c0,0,0,0,0,0c0,0,0,0,0-0.1c0,0,0,0,0-0.1c0,0,0,0,0-0.1c-0.1-0.2-0.3-0.5-0.4-0.7c-0.2-0.3-0.4-0.5-0.7-0.7
			c-1.4-1.2-2.9-2.2-4.6-2.8c-0.8-0.3-1.6-0.6-2.4-0.9c-0.2-0.1-0.4-0.1-0.6-0.2C168.5,86.2,168.4,86.1,168.4,86.1z M142.2,92.9
			c0,0,0-0.1-0.1-0.2c-0.2-0.1-0.3-0.2-0.5-0.3c-0.9-0.5-1.8-0.9-2.6-1.5c-0.1,0-0.1-0.1-0.2-0.1c-0.1,0-0.2,0-0.2,0.1
			c0,0.1,0,0.1,0,0.2c0,0.1,0.1,0.1,0.1,0.2c0.2,0.2,0.5,0.4,0.7,0.5c0.7,0.4,1.5,0.8,2.3,1.2c0.1,0,0.2,0.1,0.3,0.1
			C142.1,93.1,142.2,93.1,142.2,92.9z M137.3,81.7c0.3,0,0.7,0.1,1.1,0.1c0.3,0,0.6,0.1,0.8,0.1c0.1,0,0.2,0,0.3-0.1
			c0-0.1,0.1-0.1,0.1-0.2c0,0,0-0.1,0-0.1c-0.1,0-0.1-0.1-0.2-0.1c-0.5-0.1-1-0.1-1.5-0.2c-0.4,0-0.7,0-1.1,0c-0.2,0-0.3,0-0.5,0.1
			c0,0-0.1,0-0.1,0.1c0,0-0.1,0.1-0.1,0.2c0,0.1,0.1,0.1,0.1,0.1c0.1,0,0.2,0,0.2,0C136.8,81.7,137,81.7,137.3,81.7z M117.4,75.6
			C117.4,75.6,117.4,75.6,117.4,75.6c-0.1-0.1-0.1-0.1-0.1-0.1L117.4,75.6C117.3,75.7,117.4,75.7,117.4,75.6z"/>
		<path class="st2" d="M98.4,63.4c0.3,0,0.6-0.1,0.9-0.1c0.1,0,0.2,0.1,0.2,0.2c0,0.5-0.1,0.9-0.1,1.4c0,0.4-0.1,0.9-0.1,1.3
			c-0.1,1.4-0.1,2.8-0.1,4.2c0,0.9,0.1,1.7,0.1,2.6c0.1,1.4,0.3,2.7,0.6,4c0.5,2.5,1.2,5,2.1,7.4c0.5,1.5,1.2,2.9,2.1,4.3
			c0.1,0.2,0.1,0.3,0,0.5c0,0,0,0,0,0c-0.1,0.1-0.1,0.1-0.3,0.1c-0.4-0.1-0.7-0.1-1.1-0.2c-0.4-0.1-0.8,0-1.1,0.2
			c-0.2,0.1-0.5,0.2-0.7,0.4c-0.5,0.3-1,0.3-1.5,0.2c-0.8-0.2-1.5-0.5-2.2-0.8c-1.6-0.6-3.1-1.2-4.6-1.8c-1.4-0.6-2.9-1-4.4-1.6
			c-1.6-0.6-3.2-1.1-4.8-1.6c-1-0.3-2-0.6-3-0.9c-0.6-0.2-1.1-0.4-1.7-0.6c-0.3-0.1-0.5-0.2-0.8-0.3c-0.7-0.2-1.3-0.6-1.8-1.1
			c-0.8-0.6-1.4-1.3-2-2.1c-0.3-0.4-0.6-0.7-0.9-1.1c-0.2-0.2-0.4-0.5-0.5-0.7c-1-1.9-1.9-3.9-2.5-6c-0.5-1.5-0.8-3-1.1-4.5
			c-0.3-1.9-0.4-3.9-0.4-5.8c0-1.1,0.1-2.2,0.2-3.3c0.2-2,0.6-4,1.2-5.9c1.2-4.2,3.1-8.2,5.6-11.8c1.5-2.1,3.2-4,5.1-5.8
			c1.6-1.5,3.5-2.8,5.4-3.8c0.7-0.4,1.4-0.8,2.2-1.1c0.6-0.2,1.2-0.4,1.8-0.6c0.2,0,0.4,0,0.6-0.1c0.5-0.1,0.9-0.1,1.4,0.1
			c0.2,0.1,0.5,0.1,0.7,0.1c0.1,0,0.2,0,0.3,0c2.4-0.2,4.6,0.6,6.4,2.2c1.1,1,2,2.2,2.7,3.6c0.7,1.4,1.2,2.9,1.6,4.4
			c0.2,0.7,0.3,1.5,0.4,2.2c0,0.2,0,0.4-0.1,0.6c-0.1,0.2-0.2,0.4-0.3,0.5c0,0-0.1,0-0.1,0c0,0,0-0.1,0-0.1c-0.1-1-0.3-2-0.6-3
			c-0.4-1.5-0.9-3-1.7-4.4c-0.6-1-1.2-1.9-2.1-2.7c-1-1-2.2-1.7-3.6-2.1c-0.6-0.2-1.3-0.3-2-0.3c0,0-0.1,0-0.1,0c0,0,0,0.1,0,0.1
			c0.1,0.1,0.1,0.1,0.2,0.2c0.2,0.2,0.3,0.3,0.5,0.5c0.2,0.3,0.4,0.5,0.6,0.9c0.6,1.1,0.9,2.3,0.9,3.6c0,1.1-0.2,2.1-0.4,3.1
			c-0.3,1.2-0.8,2.4-1.3,3.6c-0.8,1.9-1.8,3.9-2.8,5.7c-1.4,2.7-2.9,5.3-4.3,8c-0.3,0.5-0.5,1-0.6,1.5c0,0.2-0.1,0.3-0.1,0.5
			c0,0.1,0,0.3,0.1,0.4c0,0.1,0.1,0.2,0.2,0.3c0.1,0.1,0.2,0.2,0.4,0.3c0.2,0.2,0.5,0.3,0.7,0.5c1.7,1.2,3,2.6,3.9,4.5l0.2,0.3
			C92.1,64,92,64,92.6,64c0.7-0.1,1.4-0.2,2.1-0.3c0.8-0.1,1.5-0.1,2.3-0.2c0.2,0,0.2,0,0.3-0.3c0-0.3,0.1-0.6,0.1-0.8
			c0.2-1.5,0.5-3,0.9-4.5c0.8-3.1,1.9-6.1,3.4-8.9c1.8-3.4,4.1-6.5,6.9-9.1c2.7-2.5,5.8-4.5,9.2-5.7c0.6-0.2,1.2-0.4,1.7-0.6
			c0.1,0,0.2,0,0.3,0c0.1,0,0.2,0.1,0.2,0.2c0,0.1,0,0.2-0.1,0.3c-0.1,0.1-0.2,0.1-0.3,0.2c-0.5,0.2-1,0.3-1.6,0.5
			c-2.5,0.9-4.8,2.2-7,3.9c-2.8,2.2-5.2,4.8-7.2,7.8c-2.1,3.3-3.7,6.8-4.8,10.5c-0.5,1.7-0.9,3.4-1.1,5.2c-0.1,0.4-0.1,0.7-0.2,1.1
			c0,0.2,0,0.2,0.2,0.2H98.4z M69.1,60.4L69.1,60.4c0,0.4,0,0.8,0,1.2c0,0,0,0.1,0,0.1c0.1,0,0.1,0,0.2-0.1c0.2-0.1,0.3-0.3,0.5-0.4
			c0.1-0.1,0.2-0.2,0.3-0.1c0.1,0,0,0.2,0,0.3c0,1.4,0.1,2.7,0.3,4c0.1,0.7,0.2,1.5,0.2,2.2c0,0.5,0,0.9,0.1,1.4
			c0.1,1.2,0.3,2.4,0.6,3.6c0.1,0.5,0.4,1,0.7,1.4c0,0,0.1,0,0.1,0c0,0,0-0.1,0-0.1c0.1-0.5,0.3-1,0.4-1.5c0-0.1,0-0.1,0.1-0.2
			c0.1-0.2,0.2-0.3,0.2-0.5c0.4-0.8,0.9-1.6,1.6-2.3c1.1-1,2.4-1.3,3.9-1.1c0.3,0.1,0.7,0.2,1,0.3c0.3,0,0.5,0.2,0.7,0.3
			c0.2,0.1,0.4,0.3,0.5,0.4c1,0.7,1.8,1.5,2.4,2.5c0.7,1,1.2,2.1,1.6,3.3c0.4,1.1,0.7,2.2,1,3.3c0.2,0.9,0.5,1.9,0.7,2.8
			c0.1,0.4,0.3,0.9,0.5,1.3c0.3,0.6,0.7,1,1.3,1.2c0.3,0.1,0.6,0.2,0.9,0.3c1.9,0.5,3.8,1,5.8,1.4c0.3,0.1,0.6,0.1,0.9,0.2
			c0.1,0,0.1,0,0.1-0.1c0,0,0-0.1,0-0.1c-0.4-0.7-0.7-1.5-1-2.3c-0.6-1.7-1.1-3.5-1.6-5.3c-0.3-1.3-0.6-2.6-0.7-3.9
			c0-0.4,0-0.8-0.1-1.2c0-0.1,0-0.2,0-0.3c0.1-0.5,0.1-0.9,0.2-1.3c0.2-0.7,0.2-1.4,0.1-2.1c0-0.1,0-0.2,0-0.3c0-0.3-0.1-0.7-0.1-1
			c0-0.1,0-0.3-0.1-0.4c-0.2-0.2-0.2-0.5-0.3-0.8C92.2,66,92,65.5,91.8,65c-0.2-0.5-0.4-1-0.6-1.4c-0.7-1.6-1.8-2.8-3.2-3.9
			c-0.3-0.3-0.7-0.5-1-0.7c-0.2-0.2-0.5-0.3-0.7-0.6c-0.4-0.4-0.6-0.9-0.5-1.4c0.1-0.3,0.1-0.6,0.3-0.9c0.2-0.6,0.6-1.3,0.9-1.9
			c1.1-2,2.1-3.9,3.2-5.9c1.2-2.2,2.3-4.4,3.3-6.6c0.5-1.1,0.9-2.2,1.3-3.4c0.4-1.3,0.6-2.6,0.6-4c0-0.7-0.2-1.3-0.4-1.9
			c-0.5-1.2-1.2-2.2-2.4-2.8c-0.7-0.3-1.5-0.5-2.3-0.3c-0.5,0.1-1,0.3-1.5,0.4c-0.7,0.3-1.4,0.6-2.1,0.9c-1.3,0.7-2.6,1.4-3.8,2.3
			c-0.4,0.3-0.7,0.6-1.1,0.9c-1.9,1.6-3.5,3.4-5,5.3c-2.4,3.2-4.3,6.8-5.6,10.6c-0.6,1.8-1.1,3.7-1.5,5.7c-0.2,0.9-0.3,1.8-0.4,2.7
			C69.2,59,69.2,59.7,69.1,60.4z"/>
		<path class="st2" d="M100.2,69.4c0-0.8,0.1-1.8,0.2-2.9c0.1-0.8,0.1-1.6,0.2-2.4c0-0.4,0.1-0.7,0.2-1.1c0.1-0.8,0.3-1.6,0.4-2.4
			c0.5-2.6,1.3-5.1,2.4-7.5c1.1-2.6,2.5-5,4.1-7.3c2.1-2.9,4.6-5.4,7.5-7.4c1.6-1.1,3.3-2,5.1-2.8c0.1-0.1,0.3-0.1,0.4-0.1
			c0.1,0,0.2,0.1,0.3,0.2c0,0.1,0,0.1,0,0.2c0,0.1-0.1,0.1-0.1,0.1c-0.1,0.1-0.2,0.1-0.3,0.2c-1.4,0.5-2.7,1.2-3.9,2
			c-1.4,0.9-2.7,1.9-3.9,3c-2.7,2.4-4.9,5.3-6.7,8.5c-1.9,3.3-3.2,6.9-4.1,10.6c-0.2,0.8-0.3,1.6-0.5,2.4c0,0.1,0,0.1,0,0.2
			c0,0.3,0,0.3,0.3,0.3c0.2,0,0.5,0,0.7,0c0.2,0,0.2,0.1,0.2,0.2c-0.1,0.6-0.2,1.2-0.3,1.8c-0.1,0.8-0.2,1.5-0.3,2.3
			c-0.1,1.3-0.1,2.7-0.1,4c0,1.1,0.1,2.3,0.2,3.4c0.5,3.9,1.7,7.6,3.5,11.1c0.5,1,1.1,2,1.7,3.1c0,0.1,0.1,0.1,0.1,0.2l0.3,0.4
			c-0.2,0.1-0.4,0.1-0.5,0.1c-0.1,0-0.3,0-0.4,0c-0.3,0-0.5-0.1-0.7-0.3c-0.7-0.8-1.3-1.6-1.8-2.6c-0.6-1.1-1.1-2.1-1.5-3.3
			c-0.6-1.6-1.1-3.3-1.5-4.9c-0.4-1.6-0.7-3.1-0.9-4.7c-0.1-1-0.2-2-0.2-3C100.3,70.6,100.2,70.1,100.2,69.4z M104.4,43.8
			c0,0.2-0.1,0.4-0.1,0.6c0,0.1-0.1,0.1-0.1,0.2c-0.1,0.1-0.3,0.1-0.4,0c-0.1-0.1-0.1-0.2-0.1-0.4c0-0.2,0-0.5,0.1-0.7
			c0-0.1,0.1-0.2,0.2-0.2c0.2-0.1,0.4,0.1,0.4,0.2C104.4,43.5,104.4,43.6,104.4,43.8L104.4,43.8z M138.1,62.9c0,0.3-0.1,0.6-0.1,0.9
			c0,0.1,0,0.1-0.1,0.2c-0.1,0.1-0.2,0.1-0.3,0.1c-0.1,0-0.2-0.1-0.2-0.2c0-0.1,0-0.2,0-0.3c0-0.3,0-0.5,0.1-0.8
			c0-0.1,0.1-0.2,0.1-0.4c0-0.1,0.1-0.2,0.3-0.2c0.1,0,0.2,0.1,0.2,0.2c0,0,0,0.1,0,0.1C138.1,62.7,138.1,62.8,138.1,62.9z"/>
	</g>
</g>
</svg>
