<?xml version="1.0" encoding="utf-8"?>
<!-- Generator: Adobe Illustrator 23.1.0, SVG Export Plug-In . SVG Version: 6.00 Build 0)  -->
<svg version="1.1" id="Слой_1" xmlns="http://www.w3.org/2000/svg" xmlns:xlink="http://www.w3.org/1999/xlink" x="0px" y="0px"
	 viewBox="0 0 200 71" style="enable-background:new 0 0 200 71;" xml:space="preserve">
<style type="text/css">
	.st0{clip-path:url(#SVGID_2_);}
	.st1{fill:none;stroke:#faffe8;stroke-width:1.0294;}
	.st2{fill:#faffe8;}
	.st3{fill:#8B83F6;stroke:#faffe8;}
	.st4{fill:#FB4B4D;stroke:#faffe8;}
</style>
<g>
	<defs>
		<rect id="SVGID_1_" x="69" y="0.8" width="61" height="70"/>
	</defs>
	<clipPath id="SVGID_2_">
		<use xlink:href="#SVGID_1_"  style="overflow:visible;"/>
	</clipPath>
	<g class="st0">
		<path class="st1" d="M99.9,2.1l-8.4,9.8l-0.1,0.2l-0.2,0l-12-0.1l0.1,13.8l0,0.2l-0.1,0.2l-8.6,9.7l8.6,9.7l0.1,0.2l0,0.2
			l-0.1,13.8l12-0.1l0.2,0l0.1,0.2l8.4,9.8l8.4-9.8l0.1-0.2l0.2,0l12,0.1l-0.1-13.8l0-0.2l0.1-0.2l8.6-9.7l-8.6-9.7l-0.1-0.2l0-0.2
			l0.1-13.8l-12,0.1l-0.2,0l-0.1-0.2L99.9,2.1L99.9,2.1z"/>
		<path class="st2" d="M109.4,27.8c-0.1-0.3-0.5-0.3-0.5,0c-0.3,2,1.2,6.7,0.7,8.9c0,0,0,0,0,0c-0.1,0.5-0.7,0.4-0.7-0.1
			c0-1.9-0.5-3.9-1.4-5.2c-3.5-4.8,0.2-8.3,0.1-9.4c0-0.2-0.1-0.2-0.3-0.2c0,0,0,0,0,0c-0.2,0.1-0.4,0.3-0.6,0.5
			c-1.4,1.1-2.7,2.5-3.4,4.3c-0.4,1-0.5,2.2-0.8,3.3c-0.1,0.4-0.2,0.8-0.3,1.2c-0.1,0.5-0.3,0.9-0.6,1.3c-0.1,0.2-0.3,0.3-0.5,0.3
			c-0.5,0.1-0.8-0.3-0.8-0.7c-0.3-1.3-0.1-2.6,0-3.9c0.4-5.2-4.5-5.7-2.7-13.2c0.5-2-6,4.6-3.8,10.3c0.4,1.1,0.4,2.2-0.1,3.3
			c-0.5,1.2-1.1,2.2-1.5,3.5c-0.1,0.5-0.2,0.9-0.2,1.4c-0.1,0.6,0.1,1.5-0.6,1.7c-0.3,0.1-0.7,0-0.9-0.2c-0.2-0.2-0.3-0.4-0.3-0.7
			c-0.3-1.2-0.3-2.5-0.1-3.7c0.1-1.1,0.2-3.2-0.8-1.1c-3.2,6.7-3.1,15,0.8,21.2c1.5,2.4,3.4,3.9,5.9,4.6c5.1,1.4,11.2,1,14.4-4
			c1.2-1.9,2-4.3,2.4-6.5c0.6-2.9,0.7-5.7-0.2-8.5C111.4,33.2,110.1,30.7,109.4,27.8z"/>
	</g>
</g>
<path class="st3" d="M160.5,36.3c0-4.4,3.6-8,8-8c4.4,0,8,3.6,8,8c0,4.4-3.6,8-8,8C164.1,44.3,160.5,40.8,160.5,36.3z"/>
<path class="st4" d="M22.5,36.3c0-4.4,3.6-8,8-8c4.4,0,8,3.6,8,8c0,4.4-3.6,8-8,8C26.1,44.3,22.5,40.8,22.5,36.3z"/>
</svg>
